<svg xmlns="http://www.w3.org/2000/svg" fill="none" viewBox="-5 -5 140 140" id="Blank-Calendar--Streamline-Flex" height="140" width="140"><desc>Blank Calendar Streamline Icon: https://streamlinehq.com</desc><g id="blank-calendar--blank-calendar-date-day-month-empty"><path id="Vector" fill="#ffffff" d="M36.91805 122.35785714285714c9.285250000000001 0.4475714285714286 18.77042142857143 0.6797142857142858 29.065028571428574 0.6797142857142858 10.294514285714287 0 19.779685714285716 -0.23214285714285718 29.06456428571429 -0.6797142857142858 13.43457142857143 -0.6472142857142857 24.29792857142857 -11.258928571428571 25.79571428571429 -24.624785714285714 1.009357142857143 -9.000828571428572 1.836714285714286 -18.228785714285717 1.836714285714286 -27.62917857142857 0 -6.430635714285715 -0.38721428571428573 -12.780671428571429 -0.9545714285714286 -19.03246428571429H10.240750000000002C9.673114285714286 57.32322142857143 9.285714285714286 63.673257142857146 9.285714285714286 70.10389285714287c0 9.400392857142858 0.8277285714285715 18.628350000000005 1.8366214285714286 27.62917857142857 1.4981571428571432 13.365857142857145 12.361792857142857 23.97757142857143 25.79571428571429 24.624785714285714Z" stroke-width="10"></path><path id="Vector_2" fill="#51ff51" d="M120.84521428571429 42.474900000000005c0.3185 2.8433785714285715 0.6193571428571428 5.709507142857143 0.8812142857142857 8.596528571428573H10.24242142857143c0.2621357142857143 -2.887021428571429 0.5628071428571428 -5.75315 0.8814928571428572 -8.596528571428573 1.4981571428571432 -13.365764285714286 12.361885714285716 -23.977850000000004 25.79571428571429 -24.624878571428575 9.285250000000001 -0.44720000000000004 18.770514285714288 -0.6796214285714287 29.065028571428574 -0.6796214285714287 10.294514285714287 0 19.779685714285716 0.23242142857142858 29.064842857142857 0.6796214285714287 13.433642857142859 0.6470285714285715 24.29792857142857 11.259114285714286 25.79571428571429 24.624878571428575Z" stroke-width="10"></path><path id="Intersect" stroke="#4e604e" stroke-linecap="round" stroke-linejoin="round" d="M11.122335714285715 97.73307142857144c1.4981571428571432 13.365857142857145 12.361792857142857 23.97757142857143 25.79571428571429 24.624785714285714 9.285250000000001 0.4475714285714286 18.77042142857143 0.6797142857142858 29.065028571428574 0.6797142857142858 10.294514285714287 0 19.779685714285716 -0.23214285714285718 29.06456428571429 -0.6797142857142858 13.43457142857143 -0.6472142857142857 24.29792857142857 -11.258928571428571 25.79571428571429 -24.624785714285714 1.009357142857143 -9.000828571428572 1.836714285714286 -18.228785714285717 1.836714285714286 -27.62917857142857 0 -9.400300000000001 -0.8273571428571429 -18.628257142857144 -1.836714285714286 -27.62899285714286 -1.4977857142857145 -13.365764285714286 -12.361142857142857 -23.977850000000004 -25.79571428571429 -24.624878571428575 -9.284878571428571 -0.44720000000000004 -18.77005 -0.6796214285714287 -29.06456428571429 -0.6796214285714287 -10.294607142857142 0 -19.779778571428572 0.23242142857142858 -29.065028571428574 0.6796214285714287 -13.433828571428572 0.6470285714285715 -24.297557142857144 11.259114285714286 -25.79571428571429 24.624878571428575C10.113442857142857 51.475635714285715 9.285714285714286 60.70359285714286 9.285714285714286 70.10389285714287c0 9.400392857142858 0.8277285714285715 18.628350000000005 1.8366214285714286 27.62917857142857Z" stroke-width="10"></path><path id="Line 3" stroke="#4e604e" stroke-linecap="round" stroke-linejoin="round" d="m39.49604285714286 6.964285714285715 0 23.214285714285715" stroke-width="10"></path><path id="Line 4" stroke="#4e604e" stroke-linecap="round" stroke-linejoin="round" d="m90.53571428571429 6.964285714285715 0 23.214285714285715" stroke-width="10"></path><path id="Vector 4" stroke="#4e604e" stroke-linecap="round" stroke-linejoin="round" d="M10.24242142857143 51.07142857142858H121.72642857142858" stroke-width="10"></path></g></svg>