<svg xmlns="http://www.w3.org/2000/svg" fill="none" viewBox="-5 -5 140 140" id="Phone-Ringing-1--Streamline-Flex" height="140" width="140"><desc>Phone Ringing 1 Streamline Icon: https://streamlinehq.com</desc><g id="phone-ringing-1--android-phone-mobile-device-smartphone-iphone-ringing-incoming-call"><path id="Intersect" fill="#51ff51" d="M91.53225714285715 39.56048571428572c6.486814285714286 -5.651935714285715 15.986100000000002 -4.638678571428572 21.096028571428572 2.283171428571429 0.7651428571428572 1.0363785714285716 1.6872142857142858 2.2481642857142856 2.8813571428571434 3.741957142857143 7.577142857142857 9.478207142857142 7.577142857142857 23.2024 -0.04271428571428572 32.646992857142855 -5.624357142857144 6.972085714285714 -11.520785714285715 14.007314285714287 -18.11364285714286 20.59989285714286 -6.592207142857143 6.591928571428571 -13.627435714285715 12.489285714285716 -20.59961428571429 18.11364285714286 -9.444592857142858 7.618928571428572 -23.168785714285715 7.618928571428572 -32.646992857142855 0.04178571428571429 -1.6789500000000002 -1.3417857142857144 -2.9972428571428575 -2.335357142857143 -4.109207142857143 -3.147857142857143 -6.708742857142858 -4.901000000000001 -7.846335714285715 -14.079928571428573 -2.4131714285714287 -20.365428571428573 2.4733428571428573 -2.8610214285714286 5.0951642857142865 -5.635592857142857 7.680492857142858 -8.35742142857143 3.570914285714286 -3.7596000000000003 9.700785714285715 -4.178014285714286 13.612764285714286 -0.7747071428571429 0.6867714285714286 0.5974428571428572 1.5597214285714287 1.3866357142857144 2.7670500000000002 2.518471428571429 10.841721428571429 -6.442335714285715 17.41257142857143 -13.093414285714287 23.73744285714286 -23.73744285714286 -1.152357142857143 -1.2292428571428573 -1.9506500000000002 -2.112964285714286 -2.5532928571428575 -2.8067 -3.3965285714285716 -3.9099357142857145 -2.980992857142857 -10.021514285714286 0.8027500000000001 -13.557978571428574 2.5891357142857148 -2.419764285714286 5.214207142857143 -4.857635714285714 7.90075 -7.198378571428572Z" stroke-width="10"></path><path id="Intersect_2" stroke="#4e604e" stroke-linecap="round" stroke-linejoin="round" d="M91.53225714285715 39.56048571428572c6.486814285714286 -5.651935714285715 15.986100000000002 -4.638678571428572 21.096028571428572 2.283171428571429 0.7651428571428572 1.0363785714285716 1.6872142857142858 2.2481642857142856 2.8813571428571434 3.741957142857143 7.577142857142857 9.478207142857142 7.577142857142857 23.2024 -0.04271428571428572 32.646992857142855 -5.624357142857144 6.972085714285714 -11.520785714285715 14.007314285714287 -18.11364285714286 20.59989285714286 -6.592207142857143 6.591928571428571 -13.627435714285715 12.489285714285716 -20.59961428571429 18.11364285714286 -9.444592857142858 7.618928571428572 -23.168785714285715 7.618928571428572 -32.646992857142855 0.04178571428571429 -1.6789500000000002 -1.3417857142857144 -2.9972428571428575 -2.335357142857143 -4.109207142857143 -3.147857142857143 -6.708742857142858 -4.901000000000001 -7.846335714285715 -14.079928571428573 -2.4131714285714287 -20.365428571428573 2.4733428571428573 -2.8610214285714286 5.0951642857142865 -5.635592857142857 7.680492857142858 -8.35742142857143 3.570914285714286 -3.7596000000000003 9.700785714285715 -4.178014285714286 13.612764285714286 -0.7747071428571429 0.6867714285714286 0.5974428571428572 1.5597214285714287 1.3866357142857144 2.7670500000000002 2.518471428571429 10.841721428571429 -6.442335714285715 17.41257142857143 -13.093414285714287 23.73744285714286 -23.73744285714286 -1.152357142857143 -1.2292428571428573 -1.9506500000000002 -2.112964285714286 -2.5532928571428575 -2.8067 -3.3965285714285716 -3.9099357142857145 -2.980992857142857 -10.021514285714286 0.8027500000000001 -13.557978571428574 2.5891357142857148 -2.419764285714286 5.214207142857143 -4.857635714285714 7.90075 -7.198378571428572Z" stroke-width="10"></path><path id="Ellipse 348" stroke="#4e604e" stroke-linecap="round" stroke-linejoin="round" d="M36.299435714285714 58.553021428571434c1.0332214285714285 -5.164807142857143 3.7876428571428575 -10.019007142857143 8.17217142857143 -13.626692857142858 4.5617 -3.7534714285714292 10.107685714285715 -5.515528571428572 15.583842857142859 -5.388685714285714" stroke-width="10"></path><path id="Ellipse 349" stroke="#4e604e" stroke-linecap="round" stroke-linejoin="round" d="M7.640239285714287 53.817771428571426c2.331875 -11.655892857142858 8.547917857142858 -22.610900000000004 18.442867857142858 -30.752614285714287 10.294792857142859 -8.4708 22.81091428571429 -12.447407142857143 35.16945714285715 -12.161221428571428" stroke-width="10"></path></g></svg>