<svg xmlns="http://www.w3.org/2000/svg" fill="none" viewBox="-5 -5 140 140" id="Inbox-Favorite--Streamline-Flex" height="140" width="140"><desc>Inbox Favorite Streamline Icon: https://streamlinehq.com</desc><g id="inbox-favorite--mail-envelope-email-message-star-favorite-important-bookmark"><path id="Intersect" fill="#51ff51" d="M65 93.2657142857143c-14.086428571428572 0 -27.79214285714286 -1.1235714285714287 -40.98714285714286 -2.6278571428571427 -7.614285714285715 -0.8728571428571429 -13.984285714285715 -6.4350000000000005 -15.22857142857143 -14.012142857142857C7.549285714285714 68.99285714285715 6.964285714285715 61.10000000000001 6.964285714285715 50.18000000000001s0.5757142857142857 -18.82214285714286 1.8292857142857144 -26.455000000000005c1.235 -7.567857142857143 7.605 -13.139285714285716 15.22857142857143 -14.002857142857144C37.198571428571434 8.217857142857143 50.90428571428572 7.094285714285715 65 7.094285714285715c14.086428571428572 0 27.79214285714286 1.1235714285714287 40.98714285714286 2.6278571428571427 7.614285714285715 0.8635714285714287 13.984285714285715 6.4350000000000005 15.22857142857143 14.002857142857144 1.2442857142857144 7.6328571428571435 1.8200000000000003 15.535000000000002 1.8200000000000003 26.455000000000005 0 10.910714285714286 -0.5757142857142857 18.812857142857144 -1.8292857142857144 26.44571428571429 -1.235 7.577142857142857 -7.605 13.139285714285716 -15.22857142857143 14.012142857142857 -13.185714285714287 1.5042857142857144 -26.891428571428573 2.6278571428571427 -40.97785714285715 2.6278571428571427Z" stroke-width="10"></path><path id="Intersect_2" stroke="#4e604e" stroke-linecap="round" stroke-linejoin="round" d="M122.395 67.09857142857143c0.43642857142857144 -4.958571428571429 0.6407142857142858 -10.400000000000002 0.6407142857142858 -16.91857142857143 0 -10.92 -0.5757142857142857 -18.812857142857144 -1.8292857142857144 -26.455000000000005 -1.235 -7.567857142857143 -7.605 -13.139285714285716 -15.22857142857143 -14.002857142857144C92.80142857142857 8.217857142857143 79.0957142857143 7.094285714285715 65 7.094285714285715c-14.086428571428572 0 -27.79214285714286 1.1235714285714287 -40.98714285714286 2.6278571428571427 -7.614285714285715 0.8635714285714287 -13.984285714285715 6.4350000000000005 -15.22857142857143 14.002857142857144C7.549285714285714 31.36714285714286 6.964285714285715 39.26 6.964285714285715 50.18000000000001c0 10.910714285714286 0.5757142857142857 18.812857142857144 1.8292857142857144 26.44571428571429 1.235 7.577142857142857 7.605 13.139285714285716 15.22857142857143 14.012142857142857a420.64285714285717 420.64285714285717 0 0 0 26.055714285714288 2.2285714285714286" stroke-width="10"></path><path id="Star 4" fill="#ffffff" d="M94.84428571428573 74.07214285714286a2.3214285714285716 2.3214285714285716 0 0 1 4.057857142857143 0l7.558571428571429 13.612857142857143c0.37142857142857144 0.6500000000000001 1.0214285714285716 1.0957142857142856 1.7735714285714288 1.1792857142857145l11.97857142857143 1.3278571428571428c1.9871428571428573 0.2228571428571429 2.785714285714286 2.692857142857143 1.290714285714286 4.039285714285715l-9.657142857142858 8.66357142857143a2.3214285714285716 2.3214285714285716 0 0 0 -0.7150000000000001 2.1821428571428574l2.9528571428571433 14.782857142857145a2.3214285714285716 2.3214285714285716 0 0 1 -3.5657142857142863 2.3864285714285716l-12.359285714285715 -8.236428571428572a2.3214285714285716 2.3214285714285716 0 0 0 -2.5721428571428575 0l-12.36857142857143 8.236428571428572a2.3214285714285716 2.3214285714285716 0 0 1 -3.5657142857142863 -2.3864285714285716l2.9621428571428576 -14.782857142857145a2.3214285714285716 2.3214285714285716 0 0 0 -0.7242857142857143 -2.1821428571428574l-9.657142857142858 -8.66357142857143a2.3214285714285716 2.3214285714285716 0 0 1 1.3000000000000003 -4.039285714285715l11.97857142857143 -1.3278571428571428a2.3214285714285716 2.3214285714285716 0 0 0 1.7642857142857145 -1.1792857142857145l7.567857142857143 -13.612857142857143Z" stroke-width="10"></path><path id="Star 5" stroke="#4e604e" stroke-linecap="round" stroke-linejoin="round" d="M94.84428571428573 74.07214285714286a2.3214285714285716 2.3214285714285716 0 0 1 4.057857142857143 0l7.558571428571429 13.612857142857143c0.37142857142857144 0.6500000000000001 1.0214285714285716 1.0957142857142856 1.7735714285714288 1.1792857142857145l11.97857142857143 1.3278571428571428c1.9871428571428573 0.2228571428571429 2.785714285714286 2.692857142857143 1.290714285714286 4.039285714285715l-9.657142857142858 8.66357142857143a2.3214285714285716 2.3214285714285716 0 0 0 -0.7150000000000001 2.1821428571428574l2.9528571428571433 14.782857142857145a2.3214285714285716 2.3214285714285716 0 0 1 -3.5657142857142863 2.3864285714285716l-12.359285714285715 -8.236428571428572a2.3214285714285716 2.3214285714285716 0 0 0 -2.5721428571428575 0l-12.36857142857143 8.236428571428572a2.3214285714285716 2.3214285714285716 0 0 1 -3.5657142857142863 -2.3864285714285716l2.9621428571428576 -14.782857142857145a2.3214285714285716 2.3214285714285716 0 0 0 -0.7242857142857143 -2.1821428571428574l-9.657142857142858 -8.66357142857143a2.3214285714285716 2.3214285714285716 0 0 1 1.3000000000000003 -4.039285714285715l11.97857142857143 -1.3278571428571428a2.3214285714285716 2.3214285714285716 0 0 0 1.7642857142857145 -1.1792857142857145l7.567857142857143 -13.612857142857143Z" stroke-width="10"></path><path id="Vector 16" stroke="#4e604e" stroke-linecap="round" stroke-linejoin="round" d="m11.876428571428571 16.52857142857143 41.627857142857145 32.83428571428572a18.571428571428573 18.571428571428573 0 0 0 22.991428571428575 0l41.627857142857145 -32.79714285714286" stroke-width="10"></path></g></svg>