<svg xmlns="http://www.w3.org/2000/svg" fill="none" viewBox="-5 -5 140 140" id="Mail-Send-Email-Message-Circle--Streamline-Flex" height="140" width="140"><desc>Mail Send Email Message Circle Streamline Icon: https://streamlinehq.com</desc><g id="mail-send-email-message-circle--send-email-paper-airplane-deliver"><path id="Vector" fill="#51ff51" d="M65 123.03571428571429c37.142857142857146 0 58.03571428571429 -20.892857142857146 58.03571428571429 -58.03571428571429S102.14285714285715 6.964285714285715 65 6.964285714285715 6.964285714285715 27.85714285714286 6.964285714285715 65 27.85714285714286 123.03571428571429 65 123.03571428571429Z" stroke-width="10"></path><path id="Vector_2" stroke="#4e604e" stroke-linecap="round" stroke-linejoin="round" d="M65 123.03571428571429c37.142857142857146 0 58.03571428571429 -20.892857142857146 58.03571428571429 -58.03571428571429S102.14285714285715 6.964285714285715 65 6.964285714285715 6.964285714285715 27.85714285714286 6.964285714285715 65 27.85714285714286 123.03571428571429 65 123.03571428571429Z" stroke-width="10"></path><path id="Vector 2383" fill="#ffffff" d="M28.959728571428574 56.40124285714286c22.576264285714288 -19.146492857142857 45.45171428571429 -21.76172142857143 58.42190714285715 -20.812350000000002 3.7204142857142863 0.27235 6.618578571428572 3.170607142857143 6.890650000000001 6.891021428571429 0.9499285714285716 12.970192857142859 -1.6653928571428573 35.84564285714286 -20.811978571428572 58.421442857142864 -3.185092857142857 3.756071428571429 -8.821985714285715 3.856357142857143 -11.804185714285715 -0.06221428571428572 -4.555942857142858 -5.987428571428572 -9.419335714285713 -14.657964285714286 -9.419335714285713 -23.214378571428576 -8.556414285714286 0 -17.227414285714286 -4.863392857142858 -23.21400714285714 -9.419335714285713 -3.918664285714286 -2.9822 -3.818657142857143 -8.619092857142858 -0.06305000000000001 -11.804185714285715Z" stroke-width="10"></path><path id="Vector 2385" stroke="#4e604e" stroke-linecap="round" stroke-linejoin="round" d="M28.959728571428574 56.40124285714286c22.576264285714288 -19.146492857142857 45.45171428571429 -21.76172142857143 58.42190714285715 -20.812350000000002 3.7204142857142863 0.27235 6.618578571428572 3.170607142857143 6.890650000000001 6.891021428571429 0.9499285714285716 12.970192857142859 -1.6653928571428573 35.84564285714286 -20.811978571428572 58.421442857142864 -3.185092857142857 3.756071428571429 -8.821985714285715 3.856357142857143 -11.804185714285715 -0.06221428571428572 -4.555942857142858 -5.987428571428572 -9.419335714285713 -14.657964285714286 -9.419335714285713 -23.214378571428576 -8.556414285714286 0 -17.227414285714286 -4.863392857142858 -23.21400714285714 -9.419335714285713 -3.918664285714286 -2.9822 -3.818657142857143 -8.619092857142858 -0.06305000000000001 -11.804185714285715Z" stroke-width="10"></path><path id="Vector 2384" stroke="#4e604e" stroke-linecap="round" stroke-linejoin="round" d="m52.531421428571434 77.32808571428572 16.89359285714286 -16.893685714285716" stroke-width="10"></path></g></svg>