<svg xmlns="http://www.w3.org/2000/svg" fill="none" viewBox="-5 -5 140 140" id="Discussion-Converstion-Reply--Streamline-Flex" height="140" width="140"><desc>Discussion Converstion Reply Streamline Icon: https://streamlinehq.com</desc><g id="discussion-converstion-reply"><path id="Union" fill="#51ff51" d="M97.64207142857144 12.939457142857144c-10.545692857142859 -1.3991714285714287 -22.11829285714286 -2.4975785714285714 -32.72657142857143 -2.4975785714285714s-22.16509285714286 1.0980357142857142 -32.71097142857143 2.497207142857143c-7.259478571428572 0.9634857142857144 -12.958028571428573 7.6979500000000005 -13.752235714285716 16.203757142857146 -1.905707142857143 20.40935 -2.2817785714285717 39.84537142857143 -0.5768285714285715 60.34776428571429l-5.556478571428571 29.93482142857143 23.974414285714285 -6.684785714285715c9.392685714285715 1.1282142857142858 19.37102142857143 1.9462857142857146 28.622100000000003 1.9462857142857146 10.608000000000002 0 22.180135714285715 -1.0752857142857144 32.72564285714286 -2.4616428571428575 7.260500000000001 -0.9545714285714286 12.959142857142858 -7.688571428571429 13.749357142857143 -16.195214285714286 2.109714285714286 -22.70737857142857 2.1050714285714287 -44.262121428571426 0.0009285714285714287 -66.88685714285715 -0.7911428571428571 -8.506085714285714 -6.4897857142857145 -15.24055 -13.749357142857143 -16.203757142857146Z" stroke-width="10"></path><path id="Union_2" stroke="#4e604e" stroke-linecap="round" stroke-linejoin="round" d="M112.72578571428572 52.30680000000001c0.15692857142857142 3.5095357142857146 0.24514285714285716 6.981835714285714 0.24514285714285716 10.35877142857143 0 11.409357142857143 -1.009357142857143 23.927985714285715 -2.2452857142857146 35.283857142857144 -0.8542857142857143 7.855714285714286 -7.018142857142858 14.075285714285716 -14.87107142857143 14.956500000000002 -22.200657142857143 2.491357142857143 -35.380985714285714 2.7560000000000002 -57.603928571428575 0.4754285714285715l-25.931657142857144 6.1740714285714295 6.010085714285715 -27.645985714285715c-0.18330000000000002 -1.882307142857143 -0.3572214285714286 -3.784578571428572 -0.5185142857142858 -5.697157142857143M111.18528571428573 31.79818571428572c-0.14764285714285716 -1.4739214285714288 -0.3017857142857143 -2.933821428571429 -0.45871428571428574 -4.375057142857144 -0.8552142857142858 -7.855900000000001 -7.019071428571429 -14.075564285714288 -14.87107142857143 -14.965042857142858 -23.723607142857144 -2.687471428571429 -38.30422142857143 -2.6888642857142857 -62.027642857142865 -0.0003714285714285715 -7.852000000000001 0.88985 -14.015857142857145 7.109514285714286 -14.874878571428573 14.964950000000002 -1.240292857142857 11.341478571428572 -2.25745 23.83624285714286 -2.25745 35.24290714285714 0 1.8273357142857143 0.026092857142857143 3.683178571428572 0.07502857142857144 5.558057142857143" stroke-width="10"></path><path id="Vector" stroke="#4e604e" stroke-linecap="round" stroke-linejoin="round" d="M4.8831621428571435 56.472c2.4088257142857143 4.817707142857143 7.226523571428571 9.635321428571428 12.043952142857146 12.044128571428573 4.8178 -2.408807142857143 9.635507142857145 -7.226421428571429 12.044314285714286 -12.044128571428573" stroke-width="10"></path><path id="Vector_2" stroke="#4e604e" stroke-linecap="round" stroke-linejoin="round" d="M100.92735714285715 64.02007857142858c2.4096428571428574 -4.817614285714286 7.2270714285714295 -9.635321428571428 12.044500000000001 -12.044128571428573 4.8174285714285725 2.408807142857143 9.634857142857145 7.226514285714287 12.044500000000001 12.044128571428573" stroke-width="10"></path></g></svg>