<svg xmlns="http://www.w3.org/2000/svg" fill="none" viewBox="-5 -5 140 140" id="Star-Badge--Streamline-Flex" height="140" width="140"><desc>Star Badge Streamline Icon: https://streamlinehq.com</desc><g id="star-badge--ribbon-reward-like-social-rating-media"><path id="Vector 148" fill="#51ff51" d="m107.2147142857143 103.7892142857143 15.715142857142858 -4.518428571428571c-4.456214285714286 -11.126792857142858 -13.100285714285716 -21.007535714285716 -20.927214285714285 -28.039328571428577l-22.817878571428576 17.5435c7.662664285714286 9.067685714285716 13.714164285714286 20.972900000000003 16.84437857142857 34.382400000000004l11.185571428571428 -19.368142857142857Z" stroke-width="10"></path><path id="Vector 147" fill="#51ff51" d="M22.78537857142857 103.80128571428571 7.070839285714286 99.28285714285715C11.534342857142857 88.13610000000001 20.20246428571429 78.23957142857144 28.04072142857143 71.20536428571428l22.79819285714286 17.554085714285716c-7.673714285714286 9.071121428571429 -13.734128571428572 20.98655 -16.867685714285717 34.409978571428574l-11.185850000000002 -19.368142857142857Z" stroke-width="10"></path><path id="Vector" fill="#ffffff" d="M64.98189285714287 90.40135000000001c26.742857142857144 0 41.785250000000005 -15.042857142857144 41.785250000000005 -41.78571428571429S91.72475000000001 6.829967857142858 64.98189285714287 6.829967857142858s-41.78571428571429 15.042810714285716 -41.78571428571429 41.78566785714286 15.042857142857144 41.78571428571429 41.78571428571429 41.78571428571429Z" stroke-width="10"></path><path id="Star 2" fill="#51ff51" d="M59.46682857142857 30.060178571428573c2.0400714285714288 -5.523607142857143 9.610342857142859 -5.692514285714286 11.552635714285715 -0.13380714285714287 0.7500071428571429 2.1464857142857143 1.4028857142857143 4.459928571428572 2.059107142857143 7.225028571428572 2.924721428571429 -0.029807142857142862 5.401128571428571 0.005757142857142857 7.754592857142858 0.13185714285714287 5.9076642857142865 0.3164571428571429 8.273478571428571 7.4896714285714285 3.495514285714286 10.978407142857144 -1.0537428571428573 0.7694142857142858 -2.1762 1.5366928571428573 -3.411757142857143 2.3360071428571434 -1.4606428571428571 0.9448214285714286 -2.121971428571429 2.7482 -1.6044785714285716 4.409135714285714 0.7153714285714287 2.295707142857143 1.2886714285714285 4.357414285714286 1.7693928571428572 6.384671428571429 1.345314285714286 5.674221428571429 -4.725964285714286 10.0542 -9.42147142857143 6.596107142857144 -2.082507142857143 -1.5338142857142858 -4.150157142857143 -3.31305 -6.544478571428572 -5.587121428571429 -2.349192857142857 2.1625500000000004 -4.3869428571428575 3.8727 -6.430542857142858 5.367142857142857 -4.741842857142857 3.467657142857143 -10.943678571428572 -0.8728571428571429 -9.563821428571428 -6.583014285714286 0.468 -1.936907142857143 1.034892857142857 -3.927114285714286 1.7489642857142857 -6.141385714285715 0.5408928571428572 -1.6772785714285716 -0.12052857142857144 -3.5117642857142863 -1.6025285714285717 -4.465314285714286 -1.3321285714285716 -0.8570714285714286 -2.534814285714286 -1.6789500000000002 -3.663771428571429 -2.5101142857142857 -4.704700000000001 -3.4632928571428576 -2.4064857142857146 -10.5469 3.427821428571429 -10.848035714285714 2.4424214285714285 -0.12600714285714287 5.027842857142858 -0.13919285714285715 8.121285714285715 -0.06834285714285715 0.7924428571428572 -2.6956428571428575 1.5286142857142857 -4.9659071428571435 2.3135357142857145 -7.091221428571429Z" stroke-width="10"></path><path id="Vector 145" stroke="#4e604e" stroke-linecap="round" stroke-linejoin="round" d="M28.04072142857143 71.20536428571428C20.20246428571429 78.23957142857144 11.534342857142857 88.13610000000001 7.070839285714286 99.28285714285715l15.714539285714286 4.518428571428571 11.185850000000002 19.368142857142857c3.133557142857143 -13.423428571428573 9.193971428571428 -25.338857142857147 16.867685714285717 -34.409978571428574" stroke-width="10"></path><path id="Vector 146" stroke="#4e604e" stroke-linecap="round" stroke-linejoin="round" d="M79.1847642857143 88.77495714285715c7.662664285714286 9.067685714285716 13.714164285714286 20.972900000000003 16.84437857142857 34.382400000000004l11.185571428571428 -19.368142857142857 15.715142857142858 -4.518428571428571c-4.456214285714286 -11.126792857142858 -13.100285714285716 -21.007535714285716 -20.927214285714285 -28.039328571428577" stroke-width="10"></path><path id="Vector_2" stroke="#4e604e" stroke-linecap="round" stroke-linejoin="round" d="M64.98189285714287 90.40135000000001c26.742857142857144 0 41.785250000000005 -15.042857142857144 41.785250000000005 -41.78571428571429S91.72475000000001 6.829967857142858 64.98189285714287 6.829967857142858s-41.78571428571429 15.042810714285716 -41.78571428571429 41.78566785714286 15.042857142857144 41.78571428571429 41.78571428571429 41.78571428571429Z" stroke-width="10"></path><path id="Star 1" stroke="#4e604e" stroke-linecap="round" stroke-linejoin="round" d="M59.46682857142857 30.060178571428573c2.0400714285714288 -5.523607142857143 9.610342857142859 -5.692514285714286 11.552635714285715 -0.13380714285714287 0.7500071428571429 2.1464857142857143 1.4028857142857143 4.459928571428572 2.059107142857143 7.225028571428572 2.924721428571429 -0.029807142857142862 5.401128571428571 0.005757142857142857 7.754592857142858 0.13185714285714287 5.9076642857142865 0.3164571428571429 8.273478571428571 7.4896714285714285 3.495514285714286 10.978407142857144 -1.0537428571428573 0.7694142857142858 -2.1762 1.5366928571428573 -3.411757142857143 2.3360071428571434 -1.4606428571428571 0.9448214285714286 -2.121971428571429 2.7482 -1.6044785714285716 4.409135714285714 0.7153714285714287 2.295707142857143 1.2886714285714285 4.357414285714286 1.7693928571428572 6.384671428571429 1.345314285714286 5.674221428571429 -4.725964285714286 10.0542 -9.42147142857143 6.596107142857144 -2.082507142857143 -1.5338142857142858 -4.150157142857143 -3.31305 -6.544478571428572 -5.587121428571429 -2.349192857142857 2.1625500000000004 -4.3869428571428575 3.8727 -6.430542857142858 5.367142857142857 -4.741842857142857 3.467657142857143 -10.943678571428572 -0.8728571428571429 -9.563821428571428 -6.583014285714286 0.468 -1.936907142857143 1.034892857142857 -3.927114285714286 1.7489642857142857 -6.141385714285715 0.5408928571428572 -1.6772785714285716 -0.12052857142857144 -3.5117642857142863 -1.6025285714285717 -4.465314285714286 -1.3321285714285716 -0.8570714285714286 -2.534814285714286 -1.6789500000000002 -3.663771428571429 -2.5101142857142857 -4.704700000000001 -3.4632928571428576 -2.4064857142857146 -10.5469 3.427821428571429 -10.848035714285714 2.4424214285714285 -0.12600714285714287 5.027842857142858 -0.13919285714285715 8.121285714285715 -0.06834285714285715 0.7924428571428572 -2.6956428571428575 1.5286142857142857 -4.9659071428571435 2.3135357142857145 -7.091221428571429Z" stroke-width="10"></path></g></svg>