<svg xmlns="http://www.w3.org/2000/svg" fill="none" viewBox="-5 -5 140 140" id="User-Identifier-Card--Streamline-Flex" height="140" width="140"><desc>User Identifier Card Streamline Icon: https://streamlinehq.com</desc><g id="user-identifier-card"><path id="Intersect" fill="#51ff51" d="M10.029035714285715 91.21143571428573c0.6807357142857143 8.903421428571429 7.9377071428571435 15.803635714285715 16.855150000000002 16.266064285714286 25.873250000000002 1.340857142857143 50.358935714285714 1.340857142857143 76.2318142857143 0 8.918000000000001 -0.46242857142857147 16.174785714285715 -7.362642857142858 16.855428571428572 -16.26597142857143 1.353857142857143 -17.70479285714286 1.353857142857143 -34.718450000000004 0 -52.42324285714286 -0.6806428571428572 -8.903514285714287 -7.937428571428572 -15.803728571428573 -16.855428571428572 -16.26597142857143 -25.872878571428572 -1.3413214285714286 -50.358564285714294 -1.3413214285714286 -76.2318142857143 0 -8.917535714285716 0.4622428571428572 -16.17441428571429 7.362457142857144 -16.855150000000002 16.26597142857143 -1.3538014285714288 17.704700000000003 -1.3538014285714288 34.718450000000004 0 52.42315000000001Z" stroke-width="10"></path><path id="Intersect_2" stroke="#4e604e" stroke-linecap="round" stroke-linejoin="round" d="M10.029035714285715 91.21143571428573c0.6807357142857143 8.903421428571429 7.9377071428571435 15.803635714285715 16.855150000000002 16.266064285714286 25.873250000000002 1.340857142857143 50.358935714285714 1.340857142857143 76.2318142857143 0 8.918000000000001 -0.46242857142857147 16.174785714285715 -7.362642857142858 16.855428571428572 -16.26597142857143 1.353857142857143 -17.70479285714286 1.353857142857143 -34.718450000000004 0 -52.42324285714286 -0.6806428571428572 -8.903514285714287 -7.937428571428572 -15.803728571428573 -16.855428571428572 -16.26597142857143 -25.872878571428572 -1.3413214285714286 -50.358564285714294 -1.3413214285714286 -76.2318142857143 0 -8.917535714285716 0.4622428571428572 -16.17441428571429 7.362457142857144 -16.855150000000002 16.26597142857143 -1.3538014285714288 17.704700000000003 -1.3538014285714288 34.718450000000004 0 52.42315000000001Z" stroke-width="10"></path><path id="Vector 453" stroke="#4e604e" stroke-linecap="round" stroke-linejoin="round" d="M84.84097142857144 53.32033571428572h14.037028571428571" stroke-width="10"></path><path id="Vector 454" stroke="#4e604e" stroke-linecap="round" stroke-linejoin="round" d="M84.84097142857144 76.67966428571428h14.037028571428571" stroke-width="10"></path><path id="Vector" fill="#ffffff" d="M67.07034285714286 85.97828571428572c-1.8104357142857144 -8.826257142857143 -8.838978571428573 -15.057992857142857 -18.930971428571432 -15.057992857142857 -10.092085714285716 0 -17.120535714285715 6.231735714285715 -18.93106428571429 15.057992857142857 0 0 6.713200000000001 2.961307142857143 18.93106428571429 2.961307142857143 12.21777142857143 0 18.930971428571432 -2.961307142857143 18.930971428571432 -2.961307142857143Z" stroke-width="10"></path><path id="Vector_2" stroke="#4e604e" stroke-linecap="round" stroke-linejoin="round" d="M67.07034285714286 85.97828571428572c-1.8104357142857144 -8.826257142857143 -8.838978571428573 -15.057992857142857 -18.930971428571432 -15.057992857142857 -10.092085714285716 0 -17.120535714285715 6.231735714285715 -18.93106428571429 15.057992857142857" stroke-width="10"></path><path id="Vector_3" fill="#ffffff" d="M48.14020714285715 70.92029285714287c8.74742142857143 0 13.667828571428572 -4.920407142857143 13.667828571428572 -13.667828571428572 0 -8.74742142857143 -4.920407142857143 -13.667828571428572 -13.667828571428572 -13.667828571428572 -8.747514285714287 0 -13.667921428571429 4.920407142857143 -13.667921428571429 13.667828571428572 0 8.74742142857143 4.920407142857143 13.667828571428572 13.667921428571429 13.667828571428572Z" stroke-width="10"></path><path id="Vector_4" stroke="#4e604e" stroke-linecap="round" stroke-linejoin="round" d="M48.14020714285715 70.92029285714287c8.74742142857143 0 13.667828571428572 -4.920407142857143 13.667828571428572 -13.667828571428572 0 -8.74742142857143 -4.920407142857143 -13.667828571428572 -13.667828571428572 -13.667828571428572 -8.747514285714287 0 -13.667921428571429 4.920407142857143 -13.667921428571429 13.667828571428572 0 8.74742142857143 4.920407142857143 13.667828571428572 13.667921428571429 13.667828571428572Z" stroke-width="10"></path></g></svg>