<svg xmlns="http://www.w3.org/2000/svg" fill="none" viewBox="-5 -5 140 140" id="Tablet-Capsule--Streamline-Flex" height="140" width="140"><desc>Tablet Capsule Streamline Icon: https://streamlinehq.com</desc><g id="tablet-capsule--health-medical-hospital-medicine-capsule-tablet"><path id="Intersect" fill="#51ff51" d="m35.927728571428574 35.92921428571429 16.14906428571429 -16.14906428571429C68.13077142857144 3.7261157142857146 94.159 3.7261064285714287 110.21307142857144 19.780057142857146c16.05407142857143 16.05407142857143 16.05407142857143 42.08267142857143 0 58.13665L94.06428571428573 94.06614285714286 35.927728571428574 35.92921428571429Z" stroke-width="10"></path><path id="Subtract" fill="#ffffff" fill-rule="evenodd" d="M35.90757857142857 35.92995714285715 19.7574 52.08022857142858c-16.05396 16.053978571428573 -16.05396 42.08248571428572 0 58.13655714285715 16.053978571428573 16.05407142857143 42.08267142857143 16.05407142857143 58.13665 0l16.149807142857142 -16.14971428571429 -58.136278571428576 -58.13711428571429Z" clip-rule="evenodd" stroke-width="10"></path><path id="Rectangle 62" stroke="#4e604e" stroke-linecap="round" stroke-linejoin="round" d="M77.92125714285714 110.21678571428572c-16.053978571428573 16.05407142857143 -42.08267142857143 16.05407142857143 -58.13665 0 -16.053969285714285 -16.05314285714286 -16.05396 -42.082300000000004 0 -58.136278571428576l32.29822142857143 -32.29812857142858c16.053978571428573 -16.054015714285715 42.08267142857143 -16.053997142857146 58.13674285714286 0 16.05407142857143 16.053978571428573 16.05407142857143 42.08267142857143 0 58.13665L77.92125714285714 110.21678571428572Z" stroke-width="10"></path><path id="Intersect_2" stroke="#4e604e" stroke-linecap="round" stroke-linejoin="round" d="m35.927728571428574 35.92921428571429 16.14906428571429 -16.14906428571429C68.13077142857144 3.7261157142857146 94.159 3.7261064285714287 110.21307142857144 19.780057142857146c16.05407142857143 16.05407142857143 16.05407142857143 42.08267142857143 0 58.13665L94.06428571428573 94.06614285714286 35.927728571428574 35.92921428571429Z" stroke-width="10"></path></g></svg>