<svg xmlns="http://www.w3.org/2000/svg" fill="none" viewBox="-5 -5 140 140" id="Heart-Cross--Streamline-Flex" height="140" width="140"><desc>Heart Cross Streamline Icon: https://streamlinehq.com</desc><g id="heart-cross--health-sign-medical-symbol-heart-cross"><path id="Vector" fill="#51ff51" d="M65 29.556428571428572C36.95714285714286 -4.847142857142858 7.354285714285715 19.602142857142862 6.964285714285715 45.96428571428572c0 39.22285714285715 46.93928571428572 71.40714285714287 58.03571428571429 71.40714285714287 11.096428571428573 0 58.03571428571429 -32.19357142857143 58.03571428571429 -71.42571428571429C122.64571428571429 19.59285714285714 93.04285714285714 -4.847142857142858 65 29.556428571428572Z" stroke-width="10"></path><path id="Vector_2" stroke="#4e604e" stroke-linecap="round" stroke-linejoin="round" d="M65 29.556428571428572C36.95714285714286 -4.847142857142858 7.354285714285715 19.602142857142862 6.964285714285715 45.96428571428572c0 39.22285714285715 46.93928571428572 71.40714285714287 58.03571428571429 71.40714285714287 11.096428571428573 0 58.03571428571429 -32.19357142857143 58.03571428571429 -71.42571428571429C122.64571428571429 19.59285714285714 93.04285714285714 -4.847142857142858 65 29.556428571428572Z" stroke-width="10"></path><path id="Vector_3" stroke="#4e604e" stroke-linecap="round" stroke-linejoin="round" d="M48.40642857142858 68.80714285714286h33.17785714285714" stroke-width="10"></path><path id="Vector_4" stroke="#4e604e" stroke-linecap="round" stroke-linejoin="round" d="M65 52.213571428571434v33.17785714285714" stroke-width="10"></path></g></svg>