<svg xmlns="http://www.w3.org/2000/svg" fill="none" viewBox="-5 -5 140 140" id="Carrot--Streamline-Flex" height="140" width="140"><desc>Carrot Streamline Icon: https://streamlinehq.com</desc><g id="carrot--vegetable-carrot"><path id="Subtract" fill="#ffffff" d="M53.116235714285715 34.82198571428572C58.35588571428572 19.89807857142857 67.36767142857143 4.042860714285715 77.88253571428572 7.549917142857144c6.021692857142858 2.0084257142857145 6.699921428571429 8.33274 5.766242857142857 14.005847142857144 -0.1477357142857143 0.8979285714285714 2.5584928571428573 2.4180928571428573 3.2273428571428573 1.800964285714286 6.414664285714286 -5.917414285714287 15.474735714285716 -10.501214285714287 22.942307142857146 -3.033271428571429 7.467571428571429 7.46785 2.8841428571428573 16.526807142857145 -3.032714285714286 22.94063571428572 -0.6165714285714287 0.6688500000000001 0.9025714285714286 3.375078571428572 1.8014285714285716 3.2272500000000006 5.672642857142858 -0.9335857142857144 11.997142857142858 -0.25545 14.005642857142858 5.766242857142857 3.5016428571428575 10.500657142857145 -13.128142857142858 19.452271428571432 -27.846000000000004 24.706407142857145 0.5627142857142857 -11.318171428571429 -6.347807142857143 -21.582135714285716 -13.443764285714286 -28.67809285714286 -6.993164285714286 -6.993164285714286 -17.06315 -13.805907142857144 -28.186785714285715 -13.463914285714287Z" stroke-width="10"></path><path id="Vector 596" fill="#51ff51" d="M32.05874285714286 45.003307142857146C10.2726 66.78945 6.849272857142858 94.61492857142858 8.308179285714287 110.47307142857144c0.5354978571428571 5.821214285714286 4.987385000000001 10.272785714285716 10.808227857142858 10.80857142857143 15.858421428571429 1.4587857142857144 43.68417857142857 -1.9639285714285715 65.47022857142858 -23.75007142857143 18.761507142857145 -18.76187857142857 7.972992857142858 -37.98925 -3.282964285714286 -49.24520714285715 -11.256050000000002 -11.256050000000002 -30.483421428571432 -22.044657142857144 -49.244928571428574 -3.283057142857143Z" stroke-width="10"></path><path id="Vector 597" stroke="#4e604e" stroke-linecap="round" stroke-linejoin="round" d="M32.05772142857143 45.002842857142866C10.271671428571429 66.78889285714287 6.848325714285714 94.61492857142858 8.307222857142857 110.47307142857144c0.5354978571428571 5.821214285714286 4.98732 10.272785714285716 10.808255714285716 10.80857142857143 15.858421428571429 1.4587857142857144 43.684085714285715 -1.964857142857143 65.47022857142858 -23.751 18.761507142857145 -18.761507142857145 7.972992857142858 -37.98887857142857 -3.283057142857143 -49.24483571428571 -11.255957142857143 -11.255957142857143 -30.483328571428576 -22.044564285714287 -49.244928571428574 -3.282964285714286Z" stroke-width="10"></path><path id="Vector 593" stroke="#4e604e" stroke-linecap="round" stroke-linejoin="round" d="M30.88131428571429 46.17470000000001 50.57928571428572 65.87267142857144" stroke-width="10"></path><path id="Vector 594" stroke="#4e604e" stroke-linecap="round" stroke-linejoin="round" d="m40.73382857142858 95.41907142857144 18.742007142857144 18.742285714285718" stroke-width="10"></path><path id="Subtract_2" stroke="#4e604e" stroke-linecap="round" stroke-linejoin="round" d="M53.116235714285715 34.82198571428572C58.35588571428572 19.89807857142857 67.36767142857143 4.042860714285715 77.88253571428572 7.549917142857144c6.021692857142858 2.0084257142857145 6.699921428571429 8.33274 5.766242857142857 14.005847142857144 -0.1477357142857143 0.8979285714285714 2.5584928571428573 2.4180928571428573 3.2273428571428573 1.800964285714286 6.414664285714286 -5.917414285714287 15.474735714285716 -10.501214285714287 22.942307142857146 -3.033271428571429 7.467571428571429 7.46785 2.8841428571428573 16.526807142857145 -3.032714285714286 22.94063571428572 -0.6165714285714287 0.6688500000000001 0.9025714285714286 3.375078571428572 1.8014285714285716 3.2272500000000006 5.672642857142858 -0.9335857142857144 11.997142857142858 -0.25545 14.005642857142858 5.766242857142857 3.5016428571428575 10.500657142857145 -13.128142857142858 19.452271428571432 -27.846000000000004 24.706407142857145 0.5627142857142857 -11.318171428571429 -6.347807142857143 -21.582135714285716 -13.443764285714286 -28.67809285714286 -6.993164285714286 -6.993164285714286 -17.06315 -13.805907142857144 -28.186785714285715 -13.463914285714287Z" stroke-width="10"></path></g></svg>