<svg xmlns="http://www.w3.org/2000/svg" fill="none" viewBox="-5 -5 140 140" id="Gallery--Streamline-Flex" height="140" width="140"><desc>Gallery Streamline Icon: https://streamlinehq.com</desc><g id="gallery--pages-filter-picture-pagination-image"><path id="Subtract" fill="#ffffff" fill-rule="evenodd" d="M18.051428571428573 83.525a9.657142857142858 9.657142857142858 0 0 1 -8.635714285714286 -8.32l-0.2785714285714286 -2.135714285714286C8.06 65.12071428571429 6.964285714285715 56.86571428571429 6.964285714285715 48.40642857142858c0 -8.450000000000001 1.105 -16.714285714285715 2.1635714285714287 -24.67214285714286l0.2785714285714286 -2.126428571428572a9.657142857142858 9.657142857142858 0 0 1 8.635714285714286 -8.329285714285716l4.642857142857143 -0.4457142857142858c9.304285714285715 -0.9007142857142858 18.942857142857143 -1.847857142857143 28.83214285714286 -1.847857142857143 9.870714285714286 0 19.51857142857143 0.9471428571428572 28.83214285714286 1.8571428571428574l4.6242857142857146 0.43642857142857144c4.457142857142857 0.42714285714285716 8.050714285714287 3.9000000000000004 8.635714285714286 8.329285714285716l0.2785714285714286 2.135714285714286c0.7985714285714286 5.915000000000001 1.6157142857142857 12.006428571428572 1.977857142857143 18.21857142857143a215.16857142857145 215.16857142857145 0 0 0 -17.382857142857144 -0.7985714285714286c-9.870714285714286 0 -19.51857142857143 0.9471428571428572 -28.83214285714286 1.8571428571428574l-4.6242857142857146 0.43642857142857144a9.657142857142858 9.657142857142858 0 0 0 -8.635714285714286 8.329285714285716l-0.2785714285714286 2.135714285714286c-1.067857142857143 7.957857142857144 -2.172857142857143 16.20357142857143 -2.172857142857143 24.662857142857145 0 2.1635714285714287 0.07428571428571429 4.317857142857143 0.19500000000000003 6.453571428571428 -3.862857142857143 -0.3157142857142858 -7.688571428571429 -0.6871428571428572 -11.449285714285717 -1.0492857142857144l-4.642857142857143 -0.45500000000000007Z" clip-rule="evenodd" stroke-width="10"></path><path id="Subtract_2" stroke="#4e604e" stroke-linecap="round" stroke-linejoin="round" d="M18.051428571428573 83.525a9.657142857142858 9.657142857142858 0 0 1 -8.635714285714286 -8.32l-0.2785714285714286 -2.135714285714286C8.06 65.12071428571429 6.964285714285715 56.86571428571429 6.964285714285715 48.40642857142858c0 -8.450000000000001 1.105 -16.714285714285715 2.1635714285714287 -24.67214285714286l0.2785714285714286 -2.126428571428572a9.657142857142858 9.657142857142858 0 0 1 8.635714285714286 -8.329285714285716l4.642857142857143 -0.4457142857142858c9.304285714285715 -0.9007142857142858 18.942857142857143 -1.847857142857143 28.83214285714286 -1.847857142857143 9.870714285714286 0 19.51857142857143 0.9471428571428572 28.83214285714286 1.8571428571428574l4.6242857142857146 0.43642857142857144c4.457142857142857 0.42714285714285716 8.050714285714287 3.9000000000000004 8.635714285714286 8.329285714285716" stroke-width="10"></path><path id="Intersect" fill="#51ff51" d="M36.39071428571429 105.37428571428573c0.5850000000000001 4.438571428571429 4.178571428571429 7.911428571428572 8.635714285714286 8.329285714285716 10.725000000000001 1.0214285714285716 21.932857142857145 2.2935714285714286 33.456428571428575 2.2935714285714286 11.532857142857143 0 22.731428571428573 -1.2721428571428572 33.46571428571429 -2.2935714285714286 4.457142857142857 -0.41785714285714287 8.050714285714287 -3.890714285714286 8.635714285714286 -8.32 1.1421428571428571 -8.617142857142857 2.451428571428572 -17.587142857142858 2.451428571428572 -26.807857142857145 0 -9.211428571428572 -1.3092857142857142 -18.181428571428572 -2.451428571428572 -26.79857142857143a9.657142857142858 9.657142857142858 0 0 0 -8.635714285714286 -8.329285714285716c-10.734285714285715 -1.0121428571428572 -21.932857142857145 -2.2935714285714286 -33.46571428571429 -2.2935714285714286 -11.514285714285716 0 -22.731428571428573 1.2814285714285716 -33.456428571428575 2.2935714285714286a9.657142857142858 9.657142857142858 0 0 0 -8.635714285714286 8.329285714285716c-1.1421428571428571 8.617142857142857 -2.451428571428572 17.587142857142858 -2.451428571428572 26.79857142857143 0 9.220714285714287 1.3000000000000003 18.19071428571429 2.451428571428572 26.79857142857143Z" stroke-width="10"></path><path id="Intersect_2" fill="#ffffff" fill-rule="evenodd" d="M52.965714285714284 117.78928571428573c-9.304285714285715 -0.9007142857142858 -16.78857142857143 -7.363571428571429 -17.78214285714286 -15.405000000000001a295.6014285714286 295.6014285714286 0 0 1 -0.45500000000000007 -3.8442857142857143c4.986428571428572 -6.072857142857144 9.053571428571429 -9.972857142857144 14.950000000000003 -14.151428571428573 5.246428571428571 -3.7328571428571435 12.275714285714287 -4.011428571428572 17.53142857142857 -0.2785714285714286 12.015714285714287 8.542857142857144 22.081428571428575 20.883571428571432 28.655714285714286 32.815714285714286v0.8171428571428572a220.7307142857143 220.7307142857143 0 0 1 -21.663571428571434 1.2814285714285716 220.7214285714286 220.7214285714286 0 0 1 -21.236428571428572 -1.235Z" clip-rule="evenodd" stroke-width="10"></path><path id="Intersect_3" stroke="#4e604e" stroke-linecap="round" stroke-linejoin="round" d="M35.45285714285715 97.66714285714288a70.10714285714286 70.10714285714286 0 0 1 14.216428571428573 -13.278571428571428c5.255714285714285 -3.7328571428571435 12.285 -4.011428571428572 17.540714285714287 -0.2785714285714286 11.45857142857143 8.143571428571429 21.152857142857144 19.750714285714285 27.727142857142862 31.172142857142862" stroke-width="10"></path><path id="Intersect_4" stroke="#4e604e" stroke-linecap="round" stroke-linejoin="round" d="M36.39071428571429 105.37428571428573c0.5850000000000001 4.438571428571429 4.178571428571429 7.911428571428572 8.635714285714286 8.329285714285716 10.725000000000001 1.0214285714285716 21.932857142857145 2.2935714285714286 33.456428571428575 2.2935714285714286 11.532857142857143 0 22.731428571428573 -1.2721428571428572 33.46571428571429 -2.2935714285714286 4.457142857142857 -0.41785714285714287 8.050714285714287 -3.890714285714286 8.635714285714286 -8.32 1.1421428571428571 -8.617142857142857 2.451428571428572 -17.587142857142858 2.451428571428572 -26.807857142857145 0 -9.211428571428572 -1.3092857142857142 -18.181428571428572 -2.451428571428572 -26.79857142857143a9.657142857142858 9.657142857142858 0 0 0 -8.635714285714286 -8.329285714285716c-10.734285714285715 -1.0121428571428572 -21.932857142857145 -2.2935714285714286 -33.46571428571429 -2.2935714285714286 -11.514285714285716 0 -22.731428571428573 1.2814285714285716 -33.456428571428575 2.2935714285714286a9.657142857142858 9.657142857142858 0 0 0 -8.635714285714286 8.329285714285716c-1.1421428571428571 8.617142857142857 -2.451428571428572 17.587142857142858 -2.451428571428572 26.79857142857143 0 9.220714285714287 1.3000000000000003 18.19071428571429 2.451428571428572 26.79857142857143Z" stroke-width="10"></path><path id="Vector" fill="#ffffff" d="M93.60928571428572 81.99285714285715c7.280000000000001 0 11.365714285714287 -4.085714285714286 11.365714285714287 -11.356428571428573 0 -7.280000000000001 -4.085714285714286 -11.365714285714287 -11.365714285714287 -11.365714285714287 -7.270714285714287 0 -11.365714285714287 4.085714285714286 -11.365714285714287 11.365714285714287 0 7.270714285714287 4.095000000000001 11.365714285714287 11.365714285714287 11.365714285714287Z" stroke-width="10"></path><path id="Vector_2" stroke="#4e604e" stroke-linecap="round" stroke-linejoin="round" d="M93.60928571428572 81.99285714285715c7.280000000000001 0 11.365714285714287 -4.085714285714286 11.365714285714287 -11.356428571428573 0 -7.280000000000001 -4.085714285714286 -11.365714285714287 -11.365714285714287 -11.365714285714287 -7.270714285714287 0 -11.365714285714287 4.085714285714286 -11.365714285714287 11.365714285714287 0 7.270714285714287 4.095000000000001 11.365714285714287 11.365714285714287 11.365714285714287Z" stroke-width="10"></path></g></svg>