<svg xmlns="http://www.w3.org/2000/svg" fill="none" viewBox="-5 -5 140 140" id="Trending-Content--Streamline-Flex" height="140" width="140"><desc>Trending Content Streamline Icon: https://streamlinehq.com</desc><g id="trending-content--lit-flame-torch-trending"><path id="Vector" fill="#51ff51" d="M55.52857142857144 7.456428571428573a3.4728571428571433 3.4728571428571433 0 0 0 -3.556428571428572 0 2.3214285714285716 2.3214285714285716 0 0 0 -0.5292857142857144 3.0271428571428576c7.939285714285715 13.742857142857144 11.32857142857143 31.097857142857148 6.908571428571429 45.035714285714285 -2.8600000000000003 9.007142857142858 -14.485714285714288 9.527142857142858 -19.295714285714286 1.3835714285714287a49.14 49.14 0 0 1 -2.665 -5.200000000000001 34.635714285714286 34.635714285714286 0 0 0 -17.810000000000002 31.172142857142862c0.937857142857143 23.167857142857144 15.850714285714288 40.07714285714286 44.525000000000006 40.07714285714286s43.550000000000004 -17.810000000000002 44.525000000000006 -40.07714285714286C108.78214285714286 56.160000000000004 89.82071428571429 23.307142857142857 55.52857142857144 7.456428571428573Z" stroke-width="10"></path><path id="Vector_2" stroke="#4e604e" stroke-linecap="round" stroke-linejoin="round" d="M55.52857142857144 7.456428571428573a3.4728571428571433 3.4728571428571433 0 0 0 -3.556428571428572 0 2.3214285714285716 2.3214285714285716 0 0 0 -0.5292857142857144 3.0271428571428576c7.939285714285715 13.742857142857144 11.32857142857143 31.097857142857148 6.908571428571429 45.035714285714285 -2.8600000000000003 9.007142857142858 -14.485714285714288 9.527142857142858 -19.295714285714286 1.3835714285714287a49.14 49.14 0 0 1 -2.665 -5.200000000000001 34.635714285714286 34.635714285714286 0 0 0 -17.810000000000002 31.172142857142862c0.937857142857143 23.167857142857144 15.850714285714288 40.07714285714286 44.525000000000006 40.07714285714286s43.550000000000004 -17.810000000000002 44.525000000000006 -40.07714285714286C108.78214285714286 56.160000000000004 89.82071428571429 23.307142857142857 55.52857142857144 7.456428571428573Z" stroke-width="10"></path></g></svg>