<svg xmlns="http://www.w3.org/2000/svg" fill="none" viewBox="-5 -5 140 140" id="School-Bus-Side--Streamline-Flex" height="140" width="140"><desc>School Bus Side Streamline Icon: https://streamlinehq.com</desc><g id="school-bus-side"><path id="Subtract" fill="#51ff51" d="M6.964285714285715 102.14285714285715V65h93.00571428571429a9.285714285714286 9.285714285714286 0 0 0 5.692142857142858 6.973571428571429l11.532857142857143 4.6242857142857146a9.285714285714286 9.285714285714286 0 0 1 5.840714285714286 8.617142857142857V102.14285714285715a9.285714285714286 9.285714285714286 0 0 1 -9.285714285714286 9.285714285714286H16.25a9.285714285714286 9.285714285714286 0 0 1 -9.285714285714286 -9.285714285714286Z" stroke-width="10"></path><path id="Vector" fill="#ffffff" d="M39.52 123.03571428571429c7.456428571428573 0 11.653571428571428 -4.1971428571428575 11.653571428571428 -11.662857142857144 0 -7.456428571428573 -4.1971428571428575 -11.653571428571428 -11.653571428571428 -11.653571428571428 -7.465714285714287 0 -11.662857142857144 4.1971428571428575 -11.662857142857144 11.653571428571428 0 7.465714285714287 4.1971428571428575 11.662857142857144 11.662857142857144 11.662857142857144Z" stroke-width="10"></path><path id="Vector_2" fill="#ffffff" d="M95.12285714285714 123.13785714285714c7.465714285714287 0 11.662857142857144 -4.1971428571428575 11.662857142857144 -11.653571428571428 0 -7.465714285714287 -4.1971428571428575 -11.662857142857144 -11.662857142857144 -11.662857142857144 -7.456428571428573 0 -11.653571428571428 4.1971428571428575 -11.653571428571428 11.662857142857144 0 7.456428571428573 4.1971428571428575 11.653571428571428 11.653571428571428 11.653571428571428Z" stroke-width="10"></path><path id="Intersect" fill="#ffffff" d="M6.964285714285715 41.78571428571429V65h93.00571428571429a9.276428571428573 9.276428571428573 0 0 1 -0.14857142857142858 -1.6435714285714287V41.78571428571429a18.571428571428573 18.571428571428573 0 0 0 -18.571428571428573 -18.571428571428573h-55.71428571428572a18.571428571428573 18.571428571428573 0 0 0 -18.571428571428573 18.571428571428573Z" stroke-width="10"></path><path id="Vector 951" stroke="#4e604e" stroke-linecap="round" stroke-linejoin="round" d="M27.95 111.42857142857144H16.25a9.285714285714286 9.285714285714286 0 0 1 -9.285714285714286 -9.285714285714286V41.78571428571429a18.571428571428573 18.571428571428573 0 0 1 18.571428571428573 -18.571428571428573h55.71428571428572a18.571428571428573 18.571428571428573 0 0 1 18.571428571428573 18.571428571428573v21.57071428571429a9.285714285714286 9.285714285714286 0 0 0 5.840714285714286 8.617142857142857l11.532857142857143 4.6242857142857146a9.285714285714286 9.285714285714286 0 0 1 5.840714285714286 8.617142857142857V102.14285714285715a9.285714285714286 9.285714285714286 0 0 1 -9.285714285714286 9.285714285714286h-7.001428571428572" stroke-width="10"></path><path id="Intersect_2" stroke="#4e604e" stroke-linecap="round" stroke-linejoin="round" d="M6.964285714285715 41.78571428571429V65h93.00571428571429a9.276428571428573 9.276428571428573 0 0 1 -0.14857142857142858 -1.6435714285714287V41.78571428571429a18.571428571428573 18.571428571428573 0 0 0 -18.571428571428573 -18.571428571428573h-55.71428571428572a18.571428571428573 18.571428571428573 0 0 0 -18.571428571428573 18.571428571428573Z" stroke-width="10"></path><path id="Vector 957" stroke="#4e604e" stroke-linecap="round" stroke-linejoin="round" d="M34.82142857142858 23.214285714285715V65" stroke-width="10"></path><path id="Vector 958" stroke="#4e604e" stroke-linecap="round" stroke-linejoin="round" d="M67.32142857142858 23.214285714285715V65" stroke-width="10"></path><path id="Vector 959" stroke="#4e604e" stroke-linecap="round" stroke-linejoin="round" d="M51.23857142857143 111.42857142857144h32.23071428571429" stroke-width="10"></path><path id="Vector_3" stroke="#4e604e" stroke-linecap="round" stroke-linejoin="round" d="M39.52 123.03571428571429c7.456428571428573 0 11.653571428571428 -4.1971428571428575 11.653571428571428 -11.662857142857144 0 -7.456428571428573 -4.1971428571428575 -11.653571428571428 -11.653571428571428 -11.653571428571428 -7.465714285714287 0 -11.662857142857144 4.1971428571428575 -11.662857142857144 11.653571428571428 0 7.465714285714287 4.1971428571428575 11.662857142857144 11.662857142857144 11.662857142857144Z" stroke-width="10"></path><path id="Vector_4" stroke="#4e604e" stroke-linecap="round" stroke-linejoin="round" d="M95.12285714285714 123.13785714285714c7.465714285714287 0 11.662857142857144 -4.1971428571428575 11.662857142857144 -11.653571428571428 0 -7.465714285714287 -4.1971428571428575 -11.662857142857144 -11.662857142857144 -11.662857142857144 -7.456428571428573 0 -11.653571428571428 4.1971428571428575 -11.653571428571428 11.662857142857144 0 7.456428571428573 4.1971428571428575 11.653571428571428 11.653571428571428 11.653571428571428Z" stroke-width="10"></path></g></svg>