<svg xmlns="http://www.w3.org/2000/svg" fill="none" viewBox="-5 -5 140 140" id="Printer--Streamline-Flex" height="140" width="140"><desc>Printer Streamline Icon: https://streamlinehq.com</desc><g id="printer--printer-company-office-supplies-work"><path id="Subtract" fill="#ffffff" fill-rule="evenodd" d="M27.602992857142862 45.64002857142857c-2.139707142857143 -11.340642857142859 -2.313164285714286 -18.82827142857143 -0.8546571428571429 -29.059085714285718 0.5743214285714286 -4.028700000000001 3.8714000000000004 -7.09967142857143 7.9168142857142865 -7.540984285714286C57.309200000000004 6.569828571428572 72.54631428571429 6.503890714285715 95.10614285714287 8.996538571428571c4.156285714285715 0.45929000000000003 7.488 3.6974971428571433 7.958785714285715 7.85276142857143 1.165357142857143 10.291914285714286 1.0195714285714286 17.73432142857143 -0.7066428571428572 28.781257142857147 -0.8143571428571429 -0.14235 -1.659357142857143 -0.26352857142857145 -2.5350000000000006 -0.3627928571428572 -27.215128571428576 -3.0853642857142862 -42.42057857142857 -3.1228785714285716 -69.64285714285715 0 -0.8908714285714286 0.10214285714285715 -1.7496142857142858 0.22657142857142862 -2.5774357142857145 0.37226428571428577Z" clip-rule="evenodd" stroke-width="10"></path><path id="Vector 144" fill="#ffffff" d="M102.53935714285716 92.78118571428573c2.244357142857143 5.380885714285714 3.4264285714285716 12.633957142857144 3.9343571428571433 19.569457142857143 0.3547142857142857 4.8425 -3.4310714285714288 8.89107142857143 -8.275428571428572 9.215142857142858 -24.74057857142857 1.659357142857143 -41.65747857142857 1.6640000000000001 -66.39861428571429 0.0018571428571428573 -4.843707142857143 -0.32592857142857146 -8.62782142857143 -4.372642857142857 -8.273478571428571 -9.214214285714286 0.5068142857142858 -6.9243571428571435 1.6852642857142859 -14.163500000000003 3.9221 -19.541785714285716 2.2232785714285717 -5.345785714285714 8.035857142857143 -7.519385714285716 13.786685714285715 -8.188885714285714 17.262978571428572 -2.0098000000000003 29.9078 -2.0674642857142858 47.56207857142857 -0.004735714285714287 5.7296571428571434 0.669407142857143 11.521157142857144 2.8394785714285717 13.742300000000002 8.163164285714286Z" stroke-width="10"></path><path id="Subtract_2" fill="#51ff51" fill-rule="evenodd" d="M6.964285714285715 86.19575714285715V73.12490714285715c0 -13.92857142857143 4.615742857142858 -25.72356428571429 23.214285714285715 -27.85714285714286 27.222278571428575 -3.1228785714285716 42.427728571428574 -3.0853642857142862 69.64285714285715 0 18.450714285714287 2.0917 23.214285714285715 13.92857142857143 23.214285714285715 27.85714285714286v13.07085c0 9.865885714285715 -7.693214285714286 17.93424285714286 -17.407000000000004 18.535957142857146 -0.6676428571428572 -4.365214285714286 -1.6649285714285715 -8.534500000000001 -3.089357142857143 -11.950528571428572 -2.221142857142857 -5.323685714285715 -8.012642857142858 -7.4937571428571434 -13.742300000000002 -8.163164285714286 -17.654278571428573 -2.0627285714285715 -30.299100000000003 -2.005064285714286 -47.56207857142857 0.004735714285714287 -5.750828571428571 0.6695 -11.563407142857145 2.8431 -13.786685714285715 8.188885714285714 -1.418207142857143 3.409714285714286 -2.410942857142857 7.567857142857143 -3.076821428571429 11.92007142857143C14.657128571428572 104.13000000000001 6.964285714285715 96.06164285714287 6.964285714285715 86.19575714285715Z" clip-rule="evenodd" stroke-width="10"></path><path id="Vector 143" stroke="#4e604e" stroke-linecap="round" stroke-linejoin="round" d="M102.53935714285716 92.78118571428573c2.244357142857143 5.380885714285714 3.4264285714285716 12.633957142857144 3.9343571428571433 19.569457142857143 0.3547142857142857 4.8425 -3.4310714285714288 8.89107142857143 -8.275428571428572 9.215142857142858 -24.74057857142857 1.659357142857143 -41.65747857142857 1.6640000000000001 -66.39861428571429 0.0018571428571428573 -4.843707142857143 -0.32592857142857146 -8.62782142857143 -4.372642857142857 -8.273478571428571 -9.214214285714286 0.5068142857142858 -6.9243571428571435 1.6852642857142859 -14.163500000000003 3.9221 -19.541785714285716 2.2232785714285717 -5.345785714285714 8.035857142857143 -7.519385714285716 13.786685714285715 -8.188885714285714 17.262978571428572 -2.0098000000000003 29.9078 -2.0674642857142858 47.56207857142857 -0.004735714285714287 5.7296571428571434 0.669407142857143 11.521157142857144 2.8394785714285717 13.742300000000002 8.163164285714286Z" stroke-width="10"></path><path id="Vector 139" stroke="#4e604e" stroke-linecap="round" stroke-linejoin="round" d="M27.614321428571433 45.699735714285715c-2.1503857142857146 -11.373978571428573 -2.327 -18.869871428571432 -0.8660785714285716 -29.118514285714287 0.5743214285714286 -4.028700000000001 3.8714928571428575 -7.099950000000001 7.916907142857143 -7.541262857142858C57.309200000000004 6.569828571428572 72.54631428571429 6.503890714285715 95.10614285714287 8.996547857142858c4.156285714285715 0.4592807142857143 7.488 3.697209285714286 7.958785714285715 7.852566428571429 1.1681428571428571 10.313364285714288 1.0186428571428572 17.765428571428572 -0.716857142857143 28.850621428571433" stroke-width="10"></path><path id="Vector 138" stroke="#4e604e" stroke-linecap="round" stroke-linejoin="round" d="M24.432664285714285 104.73450000000001C14.689442857142858 104.16435714285716 6.964285714285715 96.08207142857144 6.964285714285715 86.19575714285715V73.12490714285715c0 -13.92857142857143 4.615742857142858 -25.72356428571429 23.214285714285715 -27.85714285714286 27.222278571428575 -3.1228785714285716 42.427728571428574 -3.0853642857142862 69.64285714285715 0 18.450714285714287 2.0917 23.214285714285715 13.92857142857143 23.214285714285715 27.85714285714286v13.07085c0 9.886314285714286 -7.724785714285715 17.968600000000002 -17.468285714285717 18.538742857142857" stroke-width="10"></path></g></svg>