<svg xmlns="http://www.w3.org/2000/svg" fill="none" viewBox="-5 -5 140 140" id="Tidal-Wave--Streamline-Flex" height="140" width="140"><desc>Tidal Wave Streamline Icon: https://streamlinehq.com</desc><g id="tidal-wave--nature-ocean-wave"><path id="Vector 721" fill="#51ff51" d="M46.42912857142858 13.931914285714287c43.12369285714286 -1.1194857142857144 43.09128571428572 51.07142857142858 -4.642857142857143 51.07142857142858 -16.533492857142857 0 -27.45962142857143 -4.005207142857143 -34.61228642857143 -8.95932142857143L0 55.71428571428572v74.28571428571429h130V41.78571428571429l-6.964285714285715 -9.282371428571428c-10.568071428571429 -13.606821428571429 -42.42067142857144 -35.75788357142858 -76.60658571428573 -18.571428571428573Z" stroke-width="10"></path><path id="Vector 719" stroke="#4e604e" stroke-linecap="round" stroke-linejoin="round" d="M123.03478571428573 32.50334285714286c-10.568071428571429 -13.606821428571429 -42.420857142857145 -35.75788357142858 -76.60677142857143 -18.571428571428573 43.1236 -1.1194857142857144 43.09128571428572 51.07142857142858 -4.642857142857143 51.07142857142858 -16.533492857142857 0 -27.45962142857143 -4.005207142857143 -34.612305000000006 -8.95932142857143" stroke-width="10"></path><path id="Vector 720" stroke="#4e604e" stroke-linecap="round" stroke-linejoin="round" d="M6.964285714285715 85.86082142857143c3.8423357142857144 2.561557142857143 15.369435714285716 7.684392857142858 30.738871428571432 7.684392857142858 19.211864285714288 0 31.433628571428574 -15.369250000000001 54.48782857142857 -15.369250000000001 18.443657142857145 0 25.075514285714288 6.3726 30.844728571428575 10.72667142857143" stroke-width="10"></path><path id="Vector 722" stroke="#4e604e" stroke-linecap="round" stroke-linejoin="round" d="M6.964285714285715 110.67550000000001c3.8423357142857144 2.5619285714285716 15.369435714285716 7.684857142857144 30.738871428571432 7.684857142857144 28.680878571428572 0 31.524442857142862 -15.369714285714288 55.32205714285715 -15.369714285714288 15.069785714285716 0 23.218928571428574 6.397857142857143 27.48664285714286 11.895" stroke-width="10"></path></g></svg>