<svg xmlns="http://www.w3.org/2000/svg" fill="none" viewBox="-5 -5 140 140" id="User-Sync-Online-In-Person--Streamline-Flex" height="140" width="140"><desc>User Sync Online In Person Streamline Icon: https://streamlinehq.com</desc><g id="user-sync-online-in-person"><path id="Vector" fill="#ffffff" d="M64.99545 113.80107142857143c31.230550000000004 0 48.79726428571429 -17.567642857142857 48.79726428571429 -48.79763571428572 0 -31.230550000000004 -17.566714285714287 -48.79763571428572 -48.79726428571429 -48.79763571428572 -31.230457142857144 0 -48.79763571428572 17.567085714285714 -48.79763571428572 48.79763571428572 0 31.22999285714286 17.567178571428574 48.79763571428572 48.79763571428572 48.79763571428572Z" stroke-width="10"></path><path id="Intersect" fill="#51ff51" d="M64.99656428571429 68.17840714285715c5.1929428571428575 0 10.22617142857143 1.8470214285714288 14.246978571428572 5.228228571428572 2.2431500000000004 1.8863928571428572 4.094164285714286 4.185442857142857 5.471885714285715 6.758885714285714 1.063307142857143 1.9859357142857146 1.844607142857143 4.135300000000001 2.3066642857142856 6.384392857142857 0 0 -4.756421428571429 2.3161357142857146 -22.053664285714287 2.3161357142857146s-22.053757142857147 -2.3266285714285715 -22.053757142857147 -2.3266285714285715c0.4981785714285715 -2.191614285714286 1.3221000000000003 -4.3583428571428575 2.414007142857143 -6.373900000000001 1.4044642857142857 -2.592757142857143 3.252414285714286 -4.935357142857143 5.420814285714286 -6.758885714285714 4.0208071428571435 -3.3812071428571433 9.054035714285714 -5.228228571428572 14.247071428571429 -5.228228571428572Z" stroke-width="10"></path><path id="Vector_2" fill="#51ff51" d="M64.9688 68.1772c8.898685714285715 0 13.904150000000001 -5.0055571428571435 13.904150000000001 -13.904242857142858 0 -8.898592857142857 -5.005464285714287 -13.904150000000001 -13.904150000000001 -13.904150000000001 -8.898685714285715 0 -13.904150000000001 5.0055571428571435 -13.904150000000001 13.904150000000001 0 8.898685714285715 5.005464285714287 13.904242857142858 13.904150000000001 13.904242857142858Z" stroke-width="10"></path><path id="Vector_3" stroke="#4e604e" stroke-linecap="round" stroke-linejoin="round" d="M100.78250000000001 67.34065c2.068857142857143 5.693628571428572 6.0013571428571435 9.42119285714286 11.79657142857143 11.1826 5.694 -2.0685785714285716 9.421285714285714 -6.0008928571428575 11.182785714285714 -11.796942857142858" stroke-width="10"></path><path id="Vector_4" stroke="#4e604e" stroke-linecap="round" stroke-linejoin="round" d="M29.156121428571428 62.846921428571434c-2.0629142857142857 -5.678307142857143 -5.984642857142857 -9.39575 -11.765 -11.15242142857143 -5.6784 2.0629142857142857 -9.395833571428573 5.984642857142857 -11.152458571428571 11.765092857142857" stroke-width="10"></path><path id="Vector_5" stroke="#4e604e" stroke-linecap="round" stroke-linejoin="round" d="M17.389078571428573 51.82069285714286c-0.7852 4.073550000000001 -1.1843928571428572 8.471078571428572 -1.1843928571428572 13.179214285714286 0 31.227950000000003 17.565878571428573 48.793735714285724 48.79401428571429 48.793735714285724 15.660078571428572 0 27.88444285714286 -4.417214285714286 36.181228571428576 -12.759500000000003" stroke-width="10"></path><path id="Intersect_2" stroke="#4e604e" stroke-linecap="round" stroke-linejoin="round" d="M87.02218571428573 86.5499142857143c-0.46215000000000006 -2.2490928571428572 -1.2434500000000002 -4.3984571428571435 -2.306757142857143 -6.384392857142857 -1.3777214285714288 -2.573442857142857 -3.228735714285715 -4.872492857142857 -5.471885714285715 -6.758885714285714 -4.0208071428571435 -3.3812071428571433 -9.054035714285714 -5.228228571428572 -14.246978571428572 -5.228228571428572 -5.193035714285715 0 -10.226264285714288 1.8470214285714288 -14.247071428571429 5.228228571428572 -2.1684 1.8235285714285716 -4.016350000000001 4.166128571428572 -5.420814285714286 6.758885714285714 -1.091907142857143 2.0155571428571433 -1.9158285714285717 4.182285714285715 -2.414007142857143 6.373900000000001" stroke-width="10"></path><path id="Vector_6" stroke="#4e604e" stroke-linecap="round" stroke-linejoin="round" d="M64.9688 68.1772c8.898685714285715 0 13.904150000000001 -5.0055571428571435 13.904150000000001 -13.904242857142858 0 -8.898592857142857 -5.005464285714287 -13.904150000000001 -13.904150000000001 -13.904150000000001 -8.898685714285715 0 -13.904150000000001 5.0055571428571435 -13.904150000000001 13.904150000000001 0 8.898685714285715 5.005464285714287 13.904242857142858 13.904150000000001 13.904242857142858Z" stroke-width="10"></path><path id="Vector_7" stroke="#4e604e" stroke-linecap="round" stroke-linejoin="round" d="M29.480285714285714 28.315114285714287c8.27905 -7.9213642857142865 20.269692857142857 -12.109314285714285 35.51767142857143 -12.109314285714285 31.22804285714286 0 48.79382857142858 17.565878571428573 48.79382857142858 48.79401428571429 0 4.8042428571428575 -0.41600000000000004 9.285157142857145 -1.2331428571428573 13.428442857142858" stroke-width="10"></path></g></svg>