<svg xmlns="http://www.w3.org/2000/svg" fill="none" viewBox="-5 -5 140 140" id="Table--Streamline-Flex" height="140" width="140"><desc>Table Streamline Icon: https://streamlinehq.com</desc><g id="table--money-payment-table-organize-organization-business"><path id="Intersect" fill="#ffffff" d="M8.914285714285715 95.3457142857143a29.082857142857147 29.082857142857147 0 0 0 25.563571428571432 25.62857142857143c9.935714285714287 1.1142857142857143 20.122142857142858 2.061428571428572 30.52214285714286 2.061428571428572s20.595714285714287 -0.9471428571428572 30.52214285714286 -2.061428571428572a29.082857142857147 29.082857142857147 0 0 0 25.563571428571432 -25.62857142857143c1.0585714285714287 -9.870714285714286 1.9500000000000002 -20.010714285714286 1.9500000000000002 -30.345714285714287s-0.8914285714285716 -20.475 -1.9500000000000002 -30.355000000000004a29.082857142857147 29.082857142857147 0 0 0 -25.563571428571432 -25.62857142857143C85.58642857142858 7.920714285714286 75.4 6.964285714285715 65 6.964285714285715S44.40428571428572 7.911428571428572 34.47785714285715 9.025714285714287A29.082857142857147 29.082857142857147 0 0 0 8.914285714285715 34.65428571428572C7.855714285714286 44.51571428571429 6.964285714285715 54.65571428571429 6.964285714285715 65s0.8914285714285716 20.475 1.9500000000000002 30.345714285714287Z" stroke-width="10"></path><path id="Vector" fill="#51ff51" d="M7.447142857142858 51.07142857142858h115.1057142857143a394.92142857142863 394.92142857142863 0 0 0 -1.4671428571428573 -16.426428571428573 29.082857142857147 29.082857142857147 0 0 0 -25.563571428571432 -25.62857142857143C85.58642857142858 7.920714285714286 75.4 6.964285714285715 65 6.964285714285715S44.40428571428572 7.911428571428572 34.46857142857143 9.025714285714287A29.082857142857147 29.082857142857147 0 0 0 8.914285714285715 34.65428571428572C8.329285714285716 40.03071428571429 7.800000000000001 45.50928571428572 7.447142857142858 51.07142857142858Z" stroke-width="10"></path><path id="Intersect_2" stroke="#4e604e" stroke-linecap="round" stroke-linejoin="round" d="M8.914285714285715 95.3457142857143a29.082857142857147 29.082857142857147 0 0 0 25.563571428571432 25.62857142857143c9.935714285714287 1.1142857142857143 20.122142857142858 2.061428571428572 30.52214285714286 2.061428571428572s20.595714285714287 -0.9471428571428572 30.52214285714286 -2.061428571428572a29.082857142857147 29.082857142857147 0 0 0 25.563571428571432 -25.62857142857143c1.0585714285714287 -9.870714285714286 1.9500000000000002 -20.010714285714286 1.9500000000000002 -30.345714285714287s-0.8914285714285716 -20.475 -1.9500000000000002 -30.355000000000004a29.082857142857147 29.082857142857147 0 0 0 -25.563571428571432 -25.62857142857143C85.58642857142858 7.920714285714286 75.4 6.964285714285715 65 6.964285714285715S44.40428571428572 7.911428571428572 34.47785714285715 9.025714285714287A29.082857142857147 29.082857142857147 0 0 0 8.914285714285715 34.65428571428572C7.855714285714286 44.51571428571429 6.964285714285715 54.65571428571429 6.964285714285715 65s0.8914285714285716 20.475 1.9500000000000002 30.345714285714287Z" stroke-width="10"></path><path id="Vector 259" stroke="#4e604e" stroke-linecap="round" stroke-linejoin="round" d="M46.270714285714284 51.07142857142858v71.09142857142858" stroke-width="10"></path><path id="Vector 260" stroke="#4e604e" stroke-linecap="round" stroke-linejoin="round" d="M7.790714285714286 83.57142857142858h114.42785714285715" stroke-width="10"></path><path id="Vector_2" stroke="#4e604e" stroke-linecap="round" stroke-linejoin="round" d="M122.55285714285715 51.07142857142858H7.447142857142858" stroke-width="10"></path></g></svg>