<svg xmlns="http://www.w3.org/2000/svg" fill="none" viewBox="-5 -5 140 140" id="Toilet-Man-Woman-1--Streamline-Flex" height="140" width="140"><desc>Toilet Man Woman 1 Streamline Icon: https://streamlinehq.com</desc><g id="toilet-man-woman-1--travel-wayfinder-toilet-man-women"><path id="Union" fill="#51ff51" d="M94.59357142857144 44.15357142857143c-11.077857142857145 0 -17.50357142857143 6.964285714285715 -22.072142857142858 16.51 -3.2592857142857143 6.8342857142857145 -5.348571428571429 15.627857142857145 -6.2771428571428585 23.771428571428572 -0.5757142857142857 5.097857142857143 3.602857142857143 9.257857142857144 8.72857142857143 9.257857142857144h3.2685714285714287l2.878571428571429 17.884285714285713a13.622142857142858 13.622142857142858 0 0 0 26.910000000000004 0l2.878571428571429 -17.884285714285713h3.2964285714285717c5.135000000000001 0 9.313571428571429 -4.16 8.737857142857143 -9.257857142857144 -0.9285714285714287 -8.143571428571429 -3.008571428571429 -16.93714285714286 -6.2771428571428585 -23.771428571428572 -4.5685714285714285 -9.545714285714286 -10.994285714285715 -16.51 -22.072142857142858 -16.51Z" stroke-width="10"></path><path id="Rectangle 35" fill="#51ff51" d="M6.927142857142858 71.435a22.70357142857143 22.70357142857143 0 1 1 44.478571428571435 0l-8.292142857142858 40.23500000000001a14.244285714285716 14.244285714285716 0 0 1 -27.894285714285715 0L6.927142857142858 71.435Z" stroke-width="10"></path><path id="Rectangle 36" stroke="#4e604e" stroke-linecap="round" stroke-linejoin="round" d="M6.936428571428572 71.435a22.70357142857143 22.70357142857143 0 0 1 22.239285714285717 -27.281428571428574v0a22.70357142857143 22.70357142857143 0 0 1 22.230000000000004 27.281428571428574l-8.282857142857143 40.23500000000001a14.244285714285716 14.244285714285716 0 0 1 -13.947142857142858 11.365714285714287v0a14.244285714285716 14.244285714285716 0 0 1 -13.956428571428571 -11.365714285714287L6.936428571428572 71.435Z" stroke-width="10"></path><path id="Union_2" stroke="#4e604e" stroke-linecap="round" stroke-linejoin="round" d="M94.59357142857144 44.15357142857143c-11.077857142857145 0 -17.50357142857143 6.964285714285715 -22.072142857142858 16.51 -3.2592857142857143 6.8342857142857145 -5.348571428571429 15.627857142857145 -6.2771428571428585 23.771428571428572 -0.5757142857142857 5.097857142857143 3.602857142857143 9.257857142857144 8.72857142857143 9.257857142857144h3.2685714285714287l2.878571428571429 17.884285714285713a13.622142857142858 13.622142857142858 0 0 0 26.910000000000004 0l2.878571428571429 -17.884285714285713h3.2964285714285717c5.135000000000001 0 9.313571428571429 -4.16 8.737857142857143 -9.257857142857144 -0.9285714285714287 -8.143571428571429 -3.008571428571429 -16.93714285714286 -6.2771428571428585 -23.771428571428572 -4.5685714285714285 -9.545714285714286 -10.994285714285715 -16.51 -22.072142857142858 -16.51Z" stroke-width="10"></path><path id="Vector" fill="#51ff51" d="M29.17571428571429 44.15357142857143c11.885714285714286 0 18.59 -6.695 18.59 -18.59C47.76571428571429 13.65 41.07071428571429 6.964285714285715 29.17571428571429 6.964285714285715 17.271428571428572 6.964285714285715 10.585714285714285 13.65 10.585714285714285 25.563571428571432c0 11.885714285714286 6.685714285714286 18.59 18.59 18.59Z" stroke-width="10"></path><path id="Vector_2" fill="#51ff51" d="M94.59357142857144 44.15357142857143c11.895 0 18.59 -6.695 18.59 -18.59 0 -11.904285714285715 -6.685714285714286 -18.59 -18.59 -18.59 -11.895 0 -18.59 6.685714285714286 -18.59 18.59 0 11.885714285714286 6.685714285714286 18.59 18.59 18.59Z" stroke-width="10"></path><path id="Vector_3" stroke="#4e604e" stroke-linecap="round" stroke-linejoin="round" d="M29.17571428571429 44.15357142857143c11.885714285714286 0 18.59 -6.695 18.59 -18.59C47.76571428571429 13.65 41.07071428571429 6.964285714285715 29.17571428571429 6.964285714285715 17.271428571428572 6.964285714285715 10.585714285714285 13.65 10.585714285714285 25.563571428571432c0 11.885714285714286 6.685714285714286 18.59 18.59 18.59Z" stroke-width="10"></path><path id="Vector_4" stroke="#4e604e" stroke-linecap="round" stroke-linejoin="round" d="M94.59357142857144 44.15357142857143c11.895 0 18.59 -6.695 18.59 -18.59 0 -11.904285714285715 -6.685714285714286 -18.59 -18.59 -18.59 -11.895 0 -18.59 6.685714285714286 -18.59 18.59 0 11.885714285714286 6.685714285714286 18.59 18.59 18.59Z" stroke-width="10"></path></g></svg>