<svg xmlns="http://www.w3.org/2000/svg" fill="none" viewBox="-5 -5 140 140" id="Projector-Board--Streamline-Flex" height="140" width="140"><desc>Projector Board Streamline Icon: https://streamlinehq.com</desc><g id="projector-board--projector-screen-work-meeting-presentation"><path id="Subtract" fill="#ffffff" d="M7.414828571428572 38.21461428571429H122.55378571428572c0.31478571428571434 4.412942857142857 0.4819285714285715 8.883550000000001 0.4819285714285715 13.392414285714288 0 11.89834285714286 -1.2916428571428573 23.391921428571433 -3.199857142857143 34.472100000000005 -0.6834285714285715 3.967228571428572 -3.9269285714285718 6.9767285714285725 -7.929071428571429 7.415942857142858 -15.070714285714287 1.6547142857142858 -30.686314285714285 2.755071428571429 -46.90678571428572 2.755071428571429 -16.071807142857143 0 -32.42404285714286 -1.4522857142857144 -46.853950000000005 -2.863714285714286 -4.027028571428572 -0.39371428571428574 -7.351221428571429 -3.352328571428572 -8.064085714285715 -7.335250000000001C8.097987857142858 74.96784285714287 6.964285714285715 63.49868571428572 6.964285714285715 51.60702857142858c0 -4.50515 0.15197 -8.977335714285715 0.4505428571428572 -13.392414285714288Z" stroke-width="10"></path><path id="Intersect" fill="#51ff51" d="M122.55285714285715 38.21461428571429H7.413157142857144c0.4953371428571429 -7.324757142857143 1.394482142857143 -14.492214285714287 2.673914285714286 -21.39187142857143 0.7080357142857143 -3.8181000000000003 3.8498571428571435 -6.682650000000001 7.706678571428572 -7.134864285714286C32.81599285714286 7.926397142857144 48.69688571428571 6.964285714285715 64.99842142857143 6.964285714285715c16.288907142857145 0 31.885007142857145 1.0248085714285715 47.06622142857143 2.7438357142857144 3.9241428571428574 0.4443214285714286 7.118428571428572 3.370714285714286 7.816714285714286 7.257807142857144 1.2340714285714285 6.869757142857144 2.153357142857143 13.98122142857143 2.6715000000000004 21.248685714285717Z" stroke-width="10"></path><path id="Vector" stroke="#4e604e" stroke-linecap="round" stroke-linejoin="round" d="M65 96.25014285714286V123.03571428571429" stroke-width="10"></path><path id="Vector_2" stroke="#4e604e" stroke-linecap="round" stroke-linejoin="round" d="M51.60507857142858 96.25014285714286 24.81932142857143 123.03571428571429" stroke-width="10"></path><path id="Vector_3" stroke="#4e604e" stroke-linecap="round" stroke-linejoin="round" d="M78.39352857142858 96.25014285714286 105.17928571428573 123.03571428571429" stroke-width="10"></path><path id="Intersect_2" stroke="#4e604e" stroke-linecap="round" stroke-linejoin="round" d="M122.55285714285715 38.21461428571429H7.413157142857144c0.4953371428571429 -7.324757142857143 1.394482142857143 -14.492214285714287 2.673914285714286 -21.39187142857143 0.7080357142857143 -3.8181000000000003 3.8498571428571435 -6.682650000000001 7.706678571428572 -7.134864285714286C32.81599285714286 7.926397142857144 48.69688571428571 6.964285714285715 64.99842142857143 6.964285714285715c16.288907142857145 0 31.885007142857145 1.0248085714285715 47.06622142857143 2.7438357142857144 3.9241428571428574 0.4443214285714286 7.118428571428572 3.370714285714286 7.816714285714286 7.257807142857144 1.2340714285714285 6.869757142857144 2.153357142857143 13.98122142857143 2.6715000000000004 21.248685714285717Z" stroke-width="10"></path><path id="Subtract_2" stroke="#4e604e" stroke-linecap="round" stroke-linejoin="round" d="M7.414828571428572 38.21461428571429H122.55378571428572c0.31478571428571434 4.412942857142857 0.4819285714285715 8.883550000000001 0.4819285714285715 13.392414285714288 0 11.89834285714286 -1.2916428571428573 23.391921428571433 -3.199857142857143 34.472100000000005 -0.6834285714285715 3.967228571428572 -3.9269285714285718 6.9767285714285725 -7.929071428571429 7.415942857142858 -15.070714285714287 1.6547142857142858 -30.686314285714285 2.755071428571429 -46.90678571428572 2.755071428571429 -16.071807142857143 0 -32.42404285714286 -1.4522857142857144 -46.853950000000005 -2.863714285714286 -4.027028571428572 -0.39371428571428574 -7.351221428571429 -3.352328571428572 -8.064085714285715 -7.335250000000001C8.097987857142858 74.96784285714287 6.964285714285715 63.49868571428572 6.964285714285715 51.60702857142858c0 -4.50515 0.15197 -8.977335714285715 0.4505428571428572 -13.392414285714288Zm0 0v0Z" stroke-width="10"></path></g></svg>