<svg xmlns="http://www.w3.org/2000/svg" fill="none" viewBox="-5 -5 140 140" id="Brightness-1--Streamline-Flex" height="140" width="140"><desc>Brightness 1 Streamline Icon: https://streamlinehq.com</desc><g id="brightness-1--bright-adjust-brightness-adjustment-sun-raise-controls"><path id="Vector 96" fill="#51ff51" d="M65 94.01785714285715c-24.181578571428574 0 -29.017857142857146 -14.508928571428573 -29.017857142857146 -29.017857142857146S40.81842142857143 35.98214285714286 65 35.98214285714286 94.01785714285715 50.49107142857143 94.01785714285715 65 89.18157857142857 94.01785714285715 65 94.01785714285715Z" stroke-width="10"></path><path id="Vector" stroke="#4e604e" stroke-linecap="round" stroke-linejoin="round" d="m23.96252857142857 23.962157142857144 3.4197428571428574 3.4197428571428574" stroke-width="10"></path><path id="Vector_2" stroke="#4e604e" stroke-linecap="round" stroke-linejoin="round" d="m102.61735714285714 102.61828571428572 3.4199285714285717 3.4199285714285717" stroke-width="10"></path><path id="Vector_3" stroke="#4e604e" stroke-linecap="round" stroke-linejoin="round" d="m65 6.964285714285715 0 4.836278571428572" stroke-width="10"></path><path id="Vector_4" stroke="#4e604e" stroke-linecap="round" stroke-linejoin="round" d="m65 118.1997142857143 0 4.836000000000001" stroke-width="10"></path><path id="Vector_5" stroke="#4e604e" stroke-linecap="round" stroke-linejoin="round" d="m123.03571428571429 65 -4.836000000000001 0" stroke-width="10"></path><path id="Vector_6" stroke="#4e604e" stroke-linecap="round" stroke-linejoin="round" d="M11.800564285714286 65 6.964276428571429 65" stroke-width="10"></path><path id="Vector_7" stroke="#4e604e" stroke-linecap="round" stroke-linejoin="round" d="m106.03728571428572 23.962157142857144 -3.4199285714285717 3.4197428571428574" stroke-width="10"></path><path id="Vector_8" stroke="#4e604e" stroke-linecap="round" stroke-linejoin="round" d="m27.38227142857143 102.61828571428572 -3.4198357142857145 3.4199285714285717" stroke-width="10"></path><path id="Vector 82" stroke="#4e604e" stroke-linecap="round" stroke-linejoin="round" d="M65 94.01785714285715c-24.181578571428574 0 -29.017857142857146 -14.508928571428573 -29.017857142857146 -29.017857142857146S40.81842142857143 35.98214285714286 65 35.98214285714286 94.01785714285715 50.49107142857143 94.01785714285715 65 89.18157857142857 94.01785714285715 65 94.01785714285715Z" stroke-width="10"></path></g></svg>