<svg xmlns="http://www.w3.org/2000/svg" fill="none" viewBox="-5 -5 140 140" id="Incognito-Mode--Streamline-Flex" height="140" width="140"><desc>Incognito Mode Streamline Icon: https://streamlinehq.com</desc><g id="incognito-mode--internet-safe-mode-browser"><path id="Vector" fill="#ffffff" d="M38.227985714285715 119.60185714285716c11.11184285714286 0 17.362335714285717 -6.250214285714287 17.362335714285717 -17.362428571428573 0 -11.11175 -6.2504928571428575 -17.36224285714286 -17.362335714285717 -17.36224285714286 -11.111935714285714 0 -17.362335714285717 6.2504928571428575 -17.362335714285717 17.36224285714286 0 11.112214285714288 6.250400000000001 17.362428571428573 17.362335714285717 17.362428571428573Z" stroke-width="10"></path><path id="Vector_2" fill="#ffffff" d="M91.76588571428572 119.96492857142857c11.111471428571429 0 17.362614285714287 -6.251142857142858 17.362614285714287 -17.362428571428573 0 -11.11212142857143 -6.251142857142858 -17.36252142857143 -17.362614285714287 -17.36252142857143 -11.11184285714286 0 -17.36224285714286 6.250400000000001 -17.36224285714286 17.36252142857143 0 11.111285714285716 6.250400000000001 17.362428571428573 17.36224285714286 17.362428571428573Z" stroke-width="10"></path><path id="Intersect" fill="#51ff51" d="M26.06583571428572 53.67077857142858c-0.24096428571428574 4.470514285714286 3.3839928571428572 7.945600000000001 7.860635714285715 8.005492857142857 9.92717142857143 0.13278571428571428 23.259878571428576 -0.29212857142857146 31.07102142857143 -0.29212857142857146 7.811050000000001 0 21.14385 0.42491428571428574 31.070650000000004 0.29212857142857146 4.476642857142857 -0.05989285714285715 8.101785714285715 -3.5349785714285713 7.8612857142857155 -8.005492857142857 -0.6732142857142858 -12.475914285714287 -5.144285714285715 -26.68872142857143 -7.902142857142858 -35.63782857142857 -1.1895 -3.858771428571429 -4.615278571428572 -6.714128571428573 -8.633764285714287 -7.109514285714286 -7.20367142857143 -0.7088714285714287 -14.699285714285715 -1.5312142857142859 -22.396028571428573 -1.5312142857142859 -7.6967428571428576 0 -15.192450000000001 0.8223428571428573 -22.39612142857143 1.5312142857142859 -4.0183928571428575 0.39538571428571434 -7.444542857142857 3.2507428571428574 -8.63367142857143 7.109514285714286 -2.757764285714286 8.949107142857143 -7.229207142857144 23.161914285714285 -7.901864285714287 35.63782857142857Z" stroke-width="10"></path><path id="Intersect_2" stroke="#4e604e" stroke-linecap="round" stroke-linejoin="round" d="M96.06628571428571 61.67627142857143c4.476642857142857 -0.05989285714285715 8.101785714285715 -3.5349785714285713 7.8612857142857155 -8.005492857142857 -0.6732142857142858 -12.475914285714287 -5.144285714285715 -26.68872142857143 -7.902142857142858 -35.63782857142857 -1.1895 -3.858771428571429 -4.615371428571429 -6.714128571428573 -8.633764285714287 -7.109514285714286 -7.20367142857143 -0.7088714285714287 -14.699378571428573 -1.5312142857142859 -22.39612142857143 -1.5312142857142859 -7.6967428571428576 0 -15.192357142857146 0.8223428571428573 -22.396028571428573 1.5312142857142859 -4.018485714285714 0.39538571428571434 -7.444542857142857 3.2507428571428574 -8.63367142857143 7.109514285714286 -2.757857142857143 8.949107142857143 -7.229207142857144 23.161914285714285 -7.901864285714287 35.63782857142857 -0.2410571428571429 4.470514285714286 3.3839928571428572 7.945600000000001 7.860542857142859 8.005492857142857" stroke-width="10"></path><path id="Vector 637" stroke="#4e604e" stroke-linecap="round" stroke-linejoin="round" d="M9.285714285714286 61.701528571428575h111.42857142857144" stroke-width="10"></path><path id="Ellipse 93" stroke="#4e604e" stroke-linecap="round" stroke-linejoin="round" d="M55.54602857142858 100.23185714285715c5.737178571428572 -3.7040714285714285 13.170764285714288 -3.7040714285714285 18.907942857142856 0" stroke-width="10"></path><path id="Vector_3" stroke="#4e604e" stroke-linecap="round" stroke-linejoin="round" d="M38.227985714285715 119.60185714285716c11.11184285714286 0 17.362335714285717 -6.250214285714287 17.362335714285717 -17.362428571428573 0 -11.11175 -6.2504928571428575 -17.36224285714286 -17.362335714285717 -17.36224285714286 -11.111935714285714 0 -17.362335714285717 6.2504928571428575 -17.362335714285717 17.36224285714286 0 11.112214285714288 6.250400000000001 17.362428571428573 17.362335714285717 17.362428571428573Z" stroke-width="10"></path><path id="Vector_4" stroke="#4e604e" stroke-linecap="round" stroke-linejoin="round" d="M91.76588571428572 119.96492857142857c11.111471428571429 0 17.362614285714287 -6.251142857142858 17.362614285714287 -17.362428571428573 0 -11.11212142857143 -6.251142857142858 -17.36252142857143 -17.362614285714287 -17.36252142857143 -11.11184285714286 0 -17.36224285714286 6.250400000000001 -17.36224285714286 17.36252142857143 0 11.111285714285716 6.250400000000001 17.362428571428573 17.36224285714286 17.362428571428573Z" stroke-width="10"></path></g></svg>