<svg xmlns="http://www.w3.org/2000/svg" fill="none" viewBox="-5 -5 140 140" id="Definition-Search-Book--Streamline-Flex" height="140" width="140"><desc>Definition Search Book Streamline Icon: https://streamlinehq.com</desc><g id="definition-search-book"><path id="Vector 2712" fill="#51ff51" d="M125.22992857142859 94.61864285714287V18.15997857142857c0 -3.9968500000000002 -2.5461428571428573 -7.597571428571429 -6.438714285714286 -8.503578571428571C100.37764285714287 5.3708292857142865 78.44822142857144 7.445889285714287 65 16.41157142857143v89.59228571428572c13.507742857142858 -9.005285714285716 35.571714285714286 -11.058357142857144 54.03542857142858 -6.697785714285716 3.083785714285715 0.7289285714285715 6.194500000000001 -1.5191428571428571 6.194500000000001 -4.687428571428572Z" stroke-width="10"></path><path id="Vector 2713" fill="#51ff51" d="M4.769811428571429 94.61864285714287V18.15997857142857c0 -3.9968500000000002 2.5461892857142856 -7.597571428571429 6.438974285714287 -8.503578571428571C29.622728571428574 5.3708292857142865 51.55177857142858 7.445889285714287 65 16.41157142857143v89.59228571428572c-13.507742857142858 -9.005285714285716 -35.57162142857143 -11.058357142857144 -54.03542857142858 -6.697785714285716 -3.0841850000000006 0.7289285714285715 -6.194760000000001 -1.5191428571428571 -6.194760000000001 -4.687428571428572Z" stroke-width="10"></path><path id="Vector 2714" stroke="#4e604e" stroke-linecap="round" stroke-linejoin="round" d="M125.22992857142859 58.201278571428574V18.15997857142857c0 -3.9968500000000002 -2.5461428571428573 -7.597571428571429 -6.438714285714286 -8.503578571428571C100.37764285714287 5.3708292857142865 78.44822142857144 7.445889285714287 65 16.41157142857143v41.78970714285715" stroke-width="10"></path><path id="Vector 2715" stroke="#4e604e" stroke-linecap="round" stroke-linejoin="round" d="M65 16.41157142857143C51.55177857142858 7.445889285714287 29.622728571428574 5.3708292857142865 11.208785714285716 9.6564c-3.8927850000000004 0.906007142857143 -6.438974285714287 4.506728571428572 -6.438974285714287 8.503578571428571v76.45866428571429c0 3.1682857142857146 3.1116057142857145 5.415428571428572 6.195781428571429 4.687428571428572 11.744478571428573 -2.7736428571428577 24.945328571428576 -2.9519285714285717 36.47428571428571 -0.39742857142857146" stroke-width="10"></path><path id="Vector" stroke="#4e604e" stroke-linecap="round" stroke-linejoin="round" d="m124.41928571428572 124.51028571428571 -11.02307142857143 -11.02307142857143" stroke-width="10"></path><path id="Vector_2" fill="#ffffff" d="M94.24442857142859 119.86835714285715c16.342857142857145 0 25.53571428571429 -9.192857142857143 25.53571428571429 -25.53571428571429 0 -16.342485714285715 -9.192857142857143 -25.53534285714286 -25.53571428571429 -25.53534285714286 -16.342764285714285 0 -25.53562142857143 9.192857142857143 -25.53562142857143 25.53534285714286 0 16.342857142857145 9.192857142857143 25.53571428571429 25.53562142857143 25.53571428571429Z" stroke-width="10"></path><path id="Vector_3" stroke="#4e604e" stroke-linecap="round" stroke-linejoin="round" d="M94.24442857142859 119.86835714285715c16.342857142857145 0 25.53571428571429 -9.192857142857143 25.53571428571429 -25.53571428571429 0 -16.342485714285715 -9.192857142857143 -25.53534285714286 -25.53571428571429 -25.53534285714286 -16.342764285714285 0 -25.53562142857143 9.192857142857143 -25.53562142857143 25.53534285714286 0 16.342857142857145 9.192857142857143 25.53571428571429 25.53562142857143 25.53571428571429Z" stroke-width="10"></path></g></svg>