<svg xmlns="http://www.w3.org/2000/svg" fill="none" viewBox="-5 -5 140 140" id="Office-Building-1--Streamline-Flex" height="140" width="140"><desc>Office Building 1 Streamline Icon: https://streamlinehq.com</desc><g id="office-building-1--office-building-work"><path id="Subtract" fill="#51ff51" fill-rule="evenodd" d="M10.52777142857143 114.77328571428573c-1.9127828571428573 -26.28665 -0.9982142857142858 -66.68294285714286 2.415492857142857 -94.78392857142858 0.8008000000000001 -6.591928571428571 5.3983428571428576 -11.942217857142857 11.92592142857143 -13.160930714285714C31.12692142857143 5.660079285714286 39.027392857142864 4.642857142857143 46.24499285714286 4.642857142857143c7.2176 0 15.118071428571431 1.017222142857143 21.375807142857145 2.1855692857142857C74.14828571428572 8.047139285714287 78.74582857142859 13.397428571428573 79.54662857142858 19.98935714285714c0.8615285714285715 7.091407142857143 1.563807142857143 14.965878571428572 2.1017285714285716 23.198964285714286 -3.2799 1.3719642857142857 -6.400364285714287 3.3606857142857147 -9.159428571428572 6.119657142857143 -6.439642857142858 6.439735714285715 -8.6827 14.848785714285714 -8.6827 22.656585714285715 0 6.9732 1.7891714285714286 14.426100000000002 6.759257142857144 20.527278571428575 -1.8790571428571432 1.140657142857143 -3.685221428571429 2.4155857142857142 -5.403542857142858 3.8195857142857146 -7.936314285714286 6.487 -13.540335714285716 15.3595 -16.00012142857143 25.272928571428572 -0.12015714285714287 0.4837857142857143 -0.21719285714285716 0.9685000000000001 -0.29185 1.4522857142857144H19.582085714285714c-4.728842857142858 0 -8.711114285714286 -3.5471428571428576 -9.054314285714286 -8.263357142857144Z" clip-rule="evenodd" stroke-width="10"></path><path id="Vector" fill="#ffffff" d="M95.14607142857143 87.05385000000001c9.657142857142858 0 15.089285714285715 -5.432142857142857 15.089285714285715 -15.089285714285715s-5.432142857142857 -15.089285714285715 -15.089285714285715 -15.089285714285715c-9.657514285714287 0 -15.089657142857144 5.432142857142857 -15.089657142857144 15.089285714285715s5.432142857142857 15.089285714285715 15.089657142857144 15.089285714285715Z" stroke-width="10"></path><path id="Vector 218" stroke="#4e604e" stroke-linecap="round" stroke-linejoin="round" d="M21.09547142857143 123.03664285714287h-1.6331714285714287c-4.727542857142858 0 -8.709071428571429 -3.5452857142857144 -9.053385714285715 -8.26057142857143 -1.9193850000000001 -26.28414285714286 -1.0020214285714286 -66.67885714285714 2.42255 -94.78077142857144 0.8037714285714286 -6.595178571428573 5.408 -11.945124285714286 11.93957142857143 -13.16189642857143C31.053935714285714 5.662967142857143 38.99294285714286 4.642857142857143 46.24480714285714 4.642857142857143c7.251957142857144 0 15.190964285714287 1.02011 21.47386428571429 2.190546428571429 6.531478571428572 1.2167721428571427 11.126050000000001 6.581853571428572 11.865564285714287 13.184460714285715 0.6920642857142858 6.178435714285715 1.2769714285714286 11.274714285714285 1.8108071428571428 18.866064285714288" stroke-width="10"></path><path id="Vector 221" stroke="#4e604e" stroke-linecap="round" stroke-linejoin="round" d="M34.70127142857143 26.48842857142857h23.087350000000004" stroke-width="10"></path><path id="Vector 223" stroke="#4e604e" stroke-linecap="round" stroke-linejoin="round" d="M34.70127142857143 46.237564285714285h23.087350000000004" stroke-width="10"></path><path id="Vector 224" stroke="#4e604e" stroke-linecap="round" stroke-linejoin="round" d="m4.642857142857143 123.03664285714287 40.625 0" stroke-width="10"></path><path id="Intersect" fill="#ffffff" d="M114.84478571428573 108.89357142857143c5.213928571428572 4.262142857142858 8.896642857142858 10.091714285714286 10.512357142857145 16.604714285714287 -23.596857142857143 6.047785714285714 -36.82630714285715 5.956785714285714 -60.42344285714286 0 1.6160857142857143 -6.513000000000001 5.298057142857143 -12.342571428571429 10.512264285714288 -16.604714285714287 5.559542857142858 -4.544428571428572 12.519092857142857 -7.026500000000001 19.699178571428572 -7.026500000000001 7.180642857142858 0 14.140285714285715 2.4820714285714285 19.69964285714286 7.026500000000001Z" stroke-width="10"></path><path id="Intersect_2" stroke="#4e604e" stroke-linecap="round" stroke-linejoin="round" d="M125.35714285714286 125.35714285714286c-1.6157142857142857 -6.513000000000001 -5.2984285714285715 -12.342571428571429 -10.512357142857145 -16.604714285714287 -5.559357142857143 -4.543500000000001 -12.519000000000002 -7.026500000000001 -19.69964285714286 -7.026500000000001 -7.180085714285715 0 -14.139635714285715 2.4830000000000005 -19.699178571428572 7.026500000000001 -5.214207142857143 4.262142857142858 -8.896178571428571 10.091714285714286 -10.512264285714288 16.604714285714287" stroke-width="10"></path><path id="Vector_2" stroke="#4e604e" stroke-linecap="round" stroke-linejoin="round" d="M95.14607142857143 87.05385000000001c9.657142857142858 0 15.089285714285715 -5.432142857142857 15.089285714285715 -15.089285714285715s-5.432142857142857 -15.089285714285715 -15.089285714285715 -15.089285714285715c-9.657514285714287 0 -15.089657142857144 5.432142857142857 -15.089657142857144 15.089285714285715s5.432142857142857 15.089285714285715 15.089657142857144 15.089285714285715Z" stroke-width="10"></path></g></svg>