<svg xmlns="http://www.w3.org/2000/svg" fill="none" viewBox="-5 -5 140 140" id="Check-Square--Streamline-Flex" height="140" width="140"><desc>Check Square Streamline Icon: https://streamlinehq.com</desc><g id="check-square--check-form-validation-checkmark-success-add-addition-box-square-tick"><path id="Intersect" fill="#51ff51" d="M8.913050714285715 95.35035714285715C10.344285714285716 108.72828571428572 21.10364285714286 119.48764285714287 34.474700000000006 120.97800000000001 44.40623571428572 122.08485714285716 54.60343571428572 123.03571428571429 65 123.03571428571429s20.593764285714286 -0.950857142857143 30.524928571428575 -2.057714285714286c13.371428571428572 -1.490357142857143 24.130785714285718 -12.249714285714287 25.561714285714288 -25.62764285714286 1.0567142857142857 -9.875171428571429 1.9490714285714288 -20.013964285714287 1.9490714285714288 -30.350357142857145 0 -10.336485714285715 -0.892357142857143 -20.47518571428572 -1.9490714285714288 -30.35063571428572 -1.4309285714285713 -13.377464285714286 -12.190285714285714 -24.136914285714287 -25.561714285714288 -25.627280714285714C85.5937642857143 7.915068571428573 75.3965642857143 6.964285714285715 65 6.964285714285715S44.40623571428572 7.915068571428573 34.474700000000006 9.022083571428572C21.10364285714286 10.512450000000001 10.344285714285716 21.271900000000002 8.913050714285715 34.649364285714285 7.856485000000001 44.524814285714285 6.964285714285715 54.66351428571429 6.964285714285715 65c0 10.336392857142858 0.8922085714285716 20.47518571428572 1.948765 30.350357142857145Z" stroke-width="10"></path><path id="Intersect_2" stroke="#4e604e" stroke-linecap="round" stroke-linejoin="round" d="M8.913050714285715 95.35035714285715C10.344285714285716 108.72828571428572 21.10364285714286 119.48764285714287 34.474700000000006 120.97800000000001 44.40623571428572 122.08485714285716 54.60343571428572 123.03571428571429 65 123.03571428571429s20.593764285714286 -0.950857142857143 30.524928571428575 -2.057714285714286c13.371428571428572 -1.490357142857143 24.130785714285718 -12.249714285714287 25.561714285714288 -25.62764285714286 1.0567142857142857 -9.875171428571429 1.9490714285714288 -20.013964285714287 1.9490714285714288 -30.350357142857145 0 -10.336485714285715 -0.892357142857143 -20.47518571428572 -1.9490714285714288 -30.35063571428572 -1.4309285714285713 -13.377464285714286 -12.190285714285714 -24.136914285714287 -25.561714285714288 -25.627280714285714C85.5937642857143 7.915068571428573 75.3965642857143 6.964285714285715 65 6.964285714285715S44.40623571428572 7.915068571428573 34.474700000000006 9.022083571428572C21.10364285714286 10.512450000000001 10.344285714285716 21.271900000000002 8.913050714285715 34.649364285714285 7.856485000000001 44.524814285714285 6.964285714285715 54.66351428571429 6.964285714285715 65c0 10.336392857142858 0.8922085714285716 20.47518571428572 1.948765 30.350357142857145Z" stroke-width="10"></path><path id="Vector" stroke="#4e604e" stroke-linecap="round" stroke-linejoin="round" d="M41.78571428571429 70.80357142857143 58.66881428571429 88.21428571428572c7.944578571428573 -22.821314285714287 14.560928571428573 -32.83558571428572 29.54547142857143 -46.42857142857143" stroke-width="10"></path></g></svg>