<svg xmlns="http://www.w3.org/2000/svg" fill="none" viewBox="-5 -5 140 140" id="Group-Meeting-Approval--Streamline-Flex" height="140" width="140"><desc>Group Meeting Approval Streamline Icon: https://streamlinehq.com</desc><g id="group-meeting-approval--group-meeting-approval-work-check"><path id="Intersect" fill="#51ff51" d="M7.5654707142857145 46.81541428571429c0.869245 8.564678571428573 8.264722142857144 14.79047142857143 16.86050785714286 15.260885714285717 13.07772142857143 0.7158357142857144 26.65241428571429 1.4989928571428572 40.574021428571434 1.4989928571428572s27.4963 -0.7831571428571429 40.57392857142858 -1.4989928571428572c8.595785714285714 -0.47041428571428573 15.990928571428572 -6.696207142857144 16.861 -15.260885714285717 0.801357142857143 -7.897964285714287 0.801357142857143 -15.193192857142858 0 -23.09125 -0.8700714285714287 -8.564678571428573 -8.265214285714286 -14.790425000000003 -16.861 -15.260904285714288C92.4963 7.747461428571429 78.92160714285716 6.964285714285715 65 6.964285714285715c-13.921607142857143 0 -27.4963 0.7831757142857143 -40.574021428571434 1.4989742857142858C15.830192857142858 8.933739285714287 8.434715714285716 15.159485714285715 7.5654707142857145 23.724164285714288c-0.8015800000000001 7.8980571428571436 -0.8015800000000001 15.193285714285716 0 23.09125Z" stroke-width="10"></path><path id="Intersect_2" stroke="#4e604e" stroke-linecap="round" stroke-linejoin="round" d="M7.5654707142857145 46.81541428571429c0.869245 8.564678571428573 8.264722142857144 14.79047142857143 16.86050785714286 15.260885714285717 13.07772142857143 0.7158357142857144 26.65241428571429 1.4989928571428572 40.574021428571434 1.4989928571428572s27.4963 -0.7831571428571429 40.57392857142858 -1.4989000000000001c8.595785714285714 -0.4705071428571429 15.990928571428572 -6.696300000000001 16.861 -15.260978571428572 0.801357142857143 -7.897964285714287 0.801357142857143 -15.193192857142858 0 -23.09125 -0.8700714285714287 -8.564678571428573 -8.265214285714286 -14.790425000000003 -16.861 -15.260904285714288C92.4963 7.747461428571429 78.92160714285716 6.964285714285715 65 6.964285714285715c-13.921607142857143 0 -27.4963 0.7831757142857143 -40.574021428571434 1.4989742857142858C15.830192857142858 8.933739285714287 8.434715714285716 15.159485714285715 7.5654707142857145 23.724164285714288c-0.8015800000000001 7.8980571428571436 -0.8015800000000001 15.193285714285716 0 23.09125Z" stroke-width="10"></path><path id="Vector" stroke="#4e604e" stroke-linecap="round" stroke-linejoin="round" d="M51.57248571428572 38.62652857142857 61.33771428571429 48.69697857142858c4.595221428571429 -13.199921428571429 8.422142857142859 -18.99225714285714 17.089242857142857 -26.85456428571429" stroke-width="10"></path><path id="Intersect_3" fill="#51ff51" d="M113.20214285714287 111.05621428571429c3.7616428571428577 3.0745000000000005 6.418285714285715 7.280928571428572 7.583642857142857 11.979500000000002 -16.629785714285713 4.1971428571428575 -26.1885 4.318785714285715 -43.593178571428574 0 1.1660071428571428 -4.698571428571429 3.822371428571429 -8.905000000000001 7.584292857142858 -11.979500000000002 4.010964285714286 -3.2787857142857146 9.032028571428572 -5.069071428571429 14.212528571428573 -5.069071428571429 5.1805 0 10.201285714285715 1.7902857142857145 14.212714285714286 5.069071428571429Z" stroke-width="10"></path><path id="Intersect_4" fill="#51ff51" d="M45.22412142857143 111.05621428571429c3.7619214285714286 3.0745000000000005 6.418378571428572 7.280928571428572 7.584292857142858 11.979500000000002 -16.63034285714286 4.1971428571428575 -26.188964285714288 4.318785714285715 -43.59354071428572 0 1.165997857142857 -4.698571428571429 3.822362142857143 -8.905000000000001 7.584283571428572 -11.979500000000002 4.010964285714286 -3.2787857142857146 9.032121428571429 -5.069071428571429 14.212528571428573 -5.069071428571429 5.180314285714286 0 10.201471428571429 1.7902857142857145 14.212435714285716 5.069071428571429Z" stroke-width="10"></path><path id="Intersect_5" stroke="#4e604e" stroke-linecap="round" stroke-linejoin="round" d="M52.808414285714285 123.03571428571429c-1.165914285714286 -4.698571428571429 -3.822371428571429 -8.905000000000001 -7.584292857142858 -11.979500000000002 -4.010964285714286 -3.2787857142857146 -9.032121428571429 -5.069071428571429 -14.212435714285716 -5.069071428571429 -5.180407142857144 0 -10.201564285714287 1.7902857142857145 -14.212528571428573 5.069071428571429 -3.7619214285714286 3.0745000000000005 -6.418285714285715 7.280928571428572 -7.584283571428572 11.979500000000002" stroke-width="10"></path><path id="Intersect_6" stroke="#4e604e" stroke-linecap="round" stroke-linejoin="round" d="M120.78578571428572 123.03571428571429c-1.165357142857143 -4.698571428571429 -3.8220000000000005 -8.905000000000001 -7.583642857142857 -11.979500000000002 -4.011428571428572 -3.2787857142857146 -9.032214285714286 -5.069071428571429 -14.212714285714286 -5.069071428571429s-10.201564285714287 1.7902857142857145 -14.212528571428573 5.069071428571429c-3.7619214285714286 3.0745000000000005 -6.418285714285715 7.280928571428572 -7.584292857142858 11.979500000000002" stroke-width="10"></path><path id="Vector_2" fill="#51ff51" d="M31.012242857142862 98.70900000000002c7.42857142857143 0 11.607142857142858 -4.178571428571429 11.607142857142858 -11.60667857142857 0 -7.42857142857143 -4.178571428571429 -11.607142857142858 -11.607142857142858 -11.607142857142858s-11.607142857142858 4.178571428571429 -11.607142857142858 11.607142857142858c0 7.428107142857144 4.178571428571429 11.60667857142857 11.607142857142858 11.60667857142857Z" stroke-width="10"></path><path id="Vector_3" stroke="#4e604e" stroke-linecap="round" stroke-linejoin="round" d="M31.01112857142857 98.70900000000002c7.42857142857143 0 11.607142857142858 -4.178571428571429 11.607142857142858 -11.60667857142857 0 -7.42857142857143 -4.178571428571429 -11.607142857142858 -11.607142857142858 -11.607142857142858s-11.607142857142858 4.178571428571429 -11.607142857142858 11.607142857142858c0 7.428107142857144 4.178571428571429 11.60667857142857 11.607142857142858 11.60667857142857Z" stroke-width="10"></path><path id="Vector_4" fill="#51ff51" d="M98.99035714285716 98.70900000000002c7.42857142857143 0 11.607142857142858 -4.178571428571429 11.607142857142858 -11.60667857142857 0 -7.42857142857143 -4.178571428571429 -11.607142857142858 -11.607142857142858 -11.607142857142858 -7.428942857142857 0 -11.607514285714288 4.178571428571429 -11.607514285714288 11.607142857142858 0 7.428107142857144 4.178571428571429 11.60667857142857 11.607514285714288 11.60667857142857Z" stroke-width="10"></path><path id="Vector_5" stroke="#4e604e" stroke-linecap="round" stroke-linejoin="round" d="M98.9885 98.70900000000002c7.42857142857143 0 11.607142857142858 -4.178571428571429 11.607142857142858 -11.60667857142857 0 -7.42857142857143 -4.178571428571429 -11.607142857142858 -11.607142857142858 -11.607142857142858 -7.4282 0 -11.60677142857143 4.178571428571429 -11.60677142857143 11.607142857142858 0 7.428107142857144 4.178571428571429 11.60667857142857 11.60677142857143 11.60667857142857Z" stroke-width="10"></path></g></svg>