<svg xmlns="http://www.w3.org/2000/svg" fill="none" viewBox="-5 -5 140 140" id="Empty-Clipboard--Streamline-Flex" height="140" width="140"><desc>Empty Clipboard Streamline Icon: https://streamlinehq.com</desc><g id="empty-clipboard--work-plain-clipboard-task-list-company-office"><path id="Subtract" fill="#51ff51" fill-rule="evenodd" d="M37.9275 22.035464285714287c-1.4394714285714285 0.1793071428571429 -2.8718857142857144 0.36177142857142863 -4.2968714285714285 0.5433071428571429 -1.7941857142857145 0.22861428571428574 -3.576764285714286 0.45565000000000005 -5.347085714285715 0.6731214285714286 -4.448600000000001 0.546557142857143 -7.964171428571429 4.112364285714286 -8.278864285714286 8.583342857142858 -1.9110000000000003 27.145300000000002 -1.9110000000000003 52.79123571428572 0 79.93690714285715 0.31478571428571434 4.470142857142857 3.831285714285715 8.047 8.297621428571428 8.422142857142859 24.586157142857147 2.0605 47.06817142857143 2.0605 71.6547 0 4.466428571428572 -0.3742142857142858 7.982928571428572 -3.952 8.297714285714285 -8.422142857142859 1.9100714285714286 -27.14567142857143 1.9100714285714286 -52.791607142857146 0 -79.93690714285715 -0.31478571428571434 -4.470978571428572 -3.830357142857143 -8.036785714285715 -8.279142857142856 -8.583342857142858 -1.7707857142857144 -0.2174714285714286 -3.552714285714286 -0.44450714285714293 -5.347642857142858 -0.6731214285714286 -1.4244285714285716 -0.1815357142857143 -2.8570285714285717 -0.36400000000000005 -4.2965 -0.5433071428571429 -0.6482357142857144 7.009692857142857 -6.545314285714285 12.49792142857143 -13.724285714285715 12.49792142857143H51.651785714285715c-7.17897142857143 0 -13.076050000000002 -5.488228571428572 -13.724285714285715 -12.49792142857143Z" clip-rule="evenodd" stroke-width="10"></path><path id="Rectangle 39" fill="#ffffff" d="M51.64714285714287 6.964285714285715H76.60714285714286s13.780000000000001 0 13.780000000000001 13.780000000000001v0.009285714285714286s0 13.780000000000001 -13.780000000000001 13.780000000000001H51.64714285714287s-13.780000000000001 0 -13.780000000000001 -13.780000000000001v-0.009285714285714286S37.867142857142866 6.964285714285715 51.64714285714287 6.964285714285715" stroke-width="10"></path><path id="Rectangle 38" stroke="#4e604e" stroke-linecap="round" stroke-linejoin="round" d="M51.64714285714287 6.964285714285715H76.60714285714286s13.780000000000001 0 13.780000000000001 13.780000000000001v0.009285714285714286s0 13.780000000000001 -13.780000000000001 13.780000000000001H51.64714285714287s-13.780000000000001 0 -13.780000000000001 -13.780000000000001v-0.009285714285714286S37.867142857142866 6.964285714285715 51.64714285714287 6.964285714285715" stroke-width="10"></path><path id="Intersect" stroke="#4e604e" stroke-linecap="round" stroke-linejoin="round" d="M37.958978571428574 22.03091428571429c-3.26235 0.4063428571428572 -6.488578571428572 0.8289357142857143 -9.67525 1.2204214285714285 -4.448600000000001 0.5464642857142857 -7.964357142857144 4.112364285714286 -8.27905 8.583342857142858 -1.9110000000000003 27.145300000000002 -1.9110000000000003 52.79114285714286 0 79.93653571428571 0.31478571428571434 4.471071428571428 3.831285714285715 8.047928571428573 8.297621428571428 8.422142857142859 24.586157142857147 2.061428571428572 47.06817142857143 2.061428571428572 71.6547 0 4.466428571428572 -0.3742142857142858 7.982928571428572 -3.951071428571429 8.297714285714285 -8.422142857142859 1.9100714285714286 -27.14539285714286 1.9100714285714286 -52.79123571428572 0 -79.93653571428571 -0.31478571428571434 -4.470978571428572 -3.831285714285715 -8.036878571428572 -8.279142857142856 -8.583342857142858 -3.1868571428571433 -0.3914857142857143 -6.413642857142857 -0.8140785714285714 -9.675621428571429 -1.2204214285714285" stroke-width="10"></path></g></svg>