<svg xmlns="http://www.w3.org/2000/svg" fill="none" viewBox="-5 -5 140 140" id="Horizontal-Slider-2--Streamline-Flex" height="140" width="140"><desc>Horizontal Slider 2 Streamline Icon: https://streamlinehq.com</desc><g id="horizontal-slider-2--adjustment-adjust-controls-fader-horizontal-settings-slider"><path id="Vector" fill="#51ff51" d="M9.285714285714286 21.183035714285715c0 8.914285714285715 5.014285714285715 13.92857142857143 13.92857142857143 13.92857142857143s13.92857142857143 -5.014285714285715 13.92857142857143 -13.92857142857143 -5.014285714285715 -13.92857142857143 -13.92857142857143 -13.92857142857143 -13.92857142857143 5.014285714285715 -13.92857142857143 13.92857142857143Z" stroke-width="10"></path><path id="Vector_2" fill="#51ff51" d="M92.85714285714286 108.8165c0 8.914285714285715 5.014285714285715 13.92857142857143 13.92857142857143 13.92857142857143s13.92857142857143 -5.013357142857144 13.92857142857143 -13.927642857142859c0 -8.915214285714287 -5.014285714285715 -13.9295 -13.92857142857143 -13.9295s-13.92857142857143 5.014285714285715 -13.92857142857143 13.92857142857143Z" stroke-width="10"></path><path id="Vector_3" fill="#51ff51" d="M51.291314285714286 65c0 8.914285714285715 5.014285714285715 13.92857142857143 13.92857142857143 13.92857142857143s13.92857142857143 -5.014285714285715 13.92857142857143 -13.92857142857143 -5.014285714285715 -13.92857142857143 -13.92857142857143 -13.92857142857143 -13.92857142857143 5.014285714285715 -13.92857142857143 13.92857142857143Z" stroke-width="10"></path><path id="Vector_4" stroke="#4e604e" stroke-linecap="round" stroke-linejoin="round" d="M9.285714285714286 21.183035714285715c0 8.914285714285715 5.014285714285715 13.92857142857143 13.92857142857143 13.92857142857143s13.92857142857143 -5.014285714285715 13.92857142857143 -13.92857142857143 -5.014285714285715 -13.92857142857143 -13.92857142857143 -13.92857142857143 -13.92857142857143 5.014285714285715 -13.92857142857143 13.92857142857143Z" stroke-width="10"></path><path id="Vector_5" stroke="#4e604e" stroke-linecap="round" stroke-linejoin="round" d="M92.85714285714286 108.8165c0 8.914285714285715 5.014285714285715 13.92857142857143 13.92857142857143 13.92857142857143s13.92857142857143 -5.013357142857144 13.92857142857143 -13.927642857142859c0 -8.915214285714287 -5.014285714285715 -13.9295 -13.92857142857143 -13.9295s-13.92857142857143 5.014285714285715 -13.92857142857143 13.92857142857143Z" stroke-width="10"></path><path id="Vector_6" stroke="#4e604e" stroke-linecap="round" stroke-linejoin="round" d="M51.291314285714286 65c0 8.914285714285715 5.014285714285715 13.92857142857143 13.92857142857143 13.92857142857143s13.92857142857143 -5.014285714285715 13.92857142857143 -13.92857142857143 -5.014285714285715 -13.92857142857143 -13.92857142857143 -13.92857142857143 -13.92857142857143 5.014285714285715 -13.92857142857143 13.92857142857143Z" stroke-width="10"></path><path id="Vector_7" stroke="#4e604e" stroke-linecap="round" stroke-linejoin="round" d="M9.285714285714286 65h41.78571428571429" stroke-width="10"></path><path id="Vector_8" stroke="#4e604e" stroke-linecap="round" stroke-linejoin="round" d="M9.285714285714286 108.81742857142858h83.57142857142858" stroke-width="10"></path><path id="Vector_9" stroke="#4e604e" stroke-linecap="round" stroke-linejoin="round" d="M78.92857142857143 65H120.71428571428572" stroke-width="10"></path><path id="Vector_10" stroke="#4e604e" stroke-linecap="round" stroke-linejoin="round" d="M120.71428571428572 21.183035714285715H37.142857142857146" stroke-width="10"></path></g></svg>